<?xml version="1.0" encoding="UTF-8"?>
<svg id="Layer_2" xmlns="http://www.w3.org/2000/svg" xmlns:xlink="http://www.w3.org/1999/xlink" viewBox="0 0 79.25 93">
  <defs>
    <style>
      .cls-1 {
        fill: url(#linear-gradient-2);
      }

      .cls-2 {
        fill: url(#linear-gradient);
      }

      .cls-3 {
        fill: #fff;
      }
    </style>
    <linearGradient id="linear-gradient" x1="-564" y1="966.15" x2="-484.75" y2="966.15" gradientTransform="translate(564 1012.65) scale(1 -1)" gradientUnits="userSpaceOnUse">
      <stop offset="0" stop-color="#f50"/>
      <stop offset=".41" stop-color="#f50"/>
      <stop offset=".58" stop-color="#ff2000"/>
      <stop offset="1" stop-color="#ff2000"/>
    </linearGradient>
    <linearGradient id="linear-gradient-2" x1="-555.86" y1="1004.26" x2="-491.54" y2="1004.26" gradientTransform="translate(564 1012.65) scale(1 -1)" gradientUnits="userSpaceOnUse">
      <stop offset="0" stop-color="#ff452a"/>
      <stop offset="1" stop-color="#ff2000"/>
    </linearGradient>
  </defs>
  <g id="Layer_1-2" data-name="Layer_1">
    <path class="cls-2" d="M76.43,22.28l2.18-5.36s-2.75-2.96-6.13-6.35c-3.38-3.38-10.51-1.41-10.51-1.41L53.87,0h-28.56l-8.11,9.24s-7.12-1.97-10.51,1.41c-3.38,3.38-6.13,6.35-6.13,6.35l2.19,5.36-2.75,7.9s8.18,30.88,9.1,34.69c1.9,7.4,3.17,10.29,8.53,14.1,5.36,3.81,15.02,10.29,16.64,11.28,1.55.99,3.6,2.68,5.36,2.68s3.74-1.69,5.36-2.68c1.55-.99,11.28-7.54,16.64-11.28,5.36-3.74,6.63-6.63,8.53-14.1.99-3.81,9.1-34.69,9.1-34.69l-2.82-7.97Z"/>
    <path class="cls-3" d="M59.72,15.09s10.44,12.62,10.44,15.37-1.34,3.38-2.68,4.79c-1.34,1.41-7.12,7.54-7.83,8.32-.78.78-2.26,1.97-1.41,4.16.92,2.12,2.26,4.87.78,7.69-1.48,2.75-4.02,4.65-5.64,4.3-1.62-.28-5.5-2.33-6.91-3.24-1.41-.92-5.85-4.58-5.85-5.99s4.65-3.95,5.5-4.51c.85-.56,4.72-2.82,4.8-3.67.07-.85.07-1.13-1.13-3.31-1.13-2.19-3.24-5.08-2.89-6.98.35-1.9,3.67-2.89,6.06-3.81,2.4-.92,6.98-2.61,7.54-2.89.56-.28.42-.49-1.34-.71-1.76-.14-6.63-.85-8.88-.21-2.26.63-5.99,1.55-6.35,2.04-.28.49-.56.49-.28,2.26.28,1.69,1.97,10.01,2.12,11.49.14,1.48.49,2.47-1.13,2.82-1.55.35-4.23.99-5.15.99s-3.6-.63-5.15-.99c-1.55-.35-1.27-1.34-1.13-2.82.14-1.48,1.76-9.73,2.12-11.49.28-1.69.07-1.76-.28-2.26-.28-.49-4.09-1.41-6.35-2.04-2.26-.63-7.12,0-8.88.21-1.76.14-1.9.42-1.34.71.56.28,5.15,1.97,7.55,2.89,2.4.92,5.71,1.9,6.06,3.81.35,1.9-1.69,4.79-2.89,6.98-1.13,2.19-1.2,2.4-1.13,3.31.07.85,3.95,3.1,4.79,3.67.85.56,5.5,3.1,5.5,4.51s-4.44,5.08-5.85,5.99c-1.41.92-5.22,2.89-6.91,3.24-1.62.28-4.16-1.55-5.64-4.3-1.48-2.75-.14-5.5.78-7.69.92-2.12-.64-3.31-1.41-4.16-.56-.85-6.27-6.98-7.61-8.32-1.34-1.41-2.61-2.12-2.61-4.79s10.43-15.37,10.43-15.37c0,0,8.81,1.69,10.01,1.69s3.74-.99,6.13-1.76c2.4-.78,3.95-.78,3.95-.78,0,0,1.55,0,3.95.78,2.4.78,4.94,1.76,6.13,1.76s10.01-1.69,10.01-1.69Z"/>
    <path class="cls-3" d="M51.89,63.39c.63.42.28,1.2-.35,1.55-.56.42-8.53,6.56-9.24,7.26-.78.7-1.9,1.76-2.68,1.76s-1.9-1.13-2.68-1.76c-.78-.71-8.67-6.84-9.24-7.26-.56-.42-.99-1.2-.35-1.55.64-.42,2.68-1.41,5.43-2.89,2.82-1.48,6.28-2.68,6.84-2.68s4.02,1.2,6.84,2.68c2.75,1.48,4.72,2.54,5.43,2.89Z"/>
    <path class="cls-1" d="M61.98,9.24L53.87,0h-28.56l-8.11,9.24s-7.12-1.97-10.51,1.41c0,0,9.52-.85,12.76,4.44,0,0,8.81,1.69,10.01,1.69s3.74-.99,6.14-1.76c2.4-.78,3.95-.78,3.95-.78,0,0,1.55,0,3.95.78,2.4.78,4.94,1.76,6.14,1.76s10.01-1.69,10.01-1.69c3.24-5.29,12.76-4.44,12.76-4.44-3.31-3.38-10.44-1.41-10.44-1.41Z"/>
  </g>
</svg>