<?xml version="1.0" encoding="UTF-8"?>
<svg id="Layer_2" xmlns="http://www.w3.org/2000/svg" xmlns:xlink="http://www.w3.org/1999/xlink" viewBox="0 0 92.67 93">
  <defs>
    <style>
      .cls-1 {
        fill: #df3a32;
      }

      .cls-2 {
        fill: #eaca05;
      }

      .cls-3 {
        fill: #5ab055;
      }

      .cls-4 {
        fill: url(#linear-gradient);
      }

      .cls-5 {
        fill: #61bc5b;
      }

      .cls-6 {
        fill: #fff;
      }

      .cls-7 {
        fill: #ef3f36;
      }

      .cls-8 {
        fill: #fcd900;
      }
    </style>
    <linearGradient id="linear-gradient" x1="-517.9" y1="468.83" x2="-517.9" y2="435.68" gradientTransform="translate(564 498.65) scale(1 -1)" gradientUnits="userSpaceOnUse">
      <stop offset="0" stop-color="#86bbe5"/>
      <stop offset="1" stop-color="#1072ba"/>
    </linearGradient>
  </defs>
  <g id="Layer_1-2" data-name="Layer_1">
    <path class="cls-7" d="M46.21,0s27.31-1.23,41.79,26.23h-44.11s-8.33-.27-15.44,9.83c-2.04,4.24-4.24,8.61-1.77,17.21-3.55-6.01-18.85-32.65-18.85-32.65C7.83,20.63,18.62,1.09,46.21,0h0Z"/>
    <path class="cls-8" d="M86.59,69.7s-12.61,24.27-43.61,23.07c3.83-6.63,22.07-38.2,22.07-38.2,0,0,4.4-7.07-.8-18.28-2.64-3.89-5.33-7.97-14.01-10.14,6.98-.06,37.69,0,37.69,0,0,0,11.5,19.11-1.34,43.55Z"/>
    <path class="cls-5" d="M6.03,69.89s-14.72-23.05,1.83-49.3c3.81,6.63,22.05,38.2,22.05,38.2,0,0,3.93,7.35,16.23,8.45,4.68-.34,9.56-.64,15.79-7.06-3.43,6.08-18.85,32.64-18.85,32.64,0,0-22.31.41-37.05-22.93h0Z"/>
    <path class="cls-3" d="M42.97,93l6.21-25.89s6.81-.54,12.53-6.81c-3.55,6.24-18.74,32.7-18.74,32.7Z"/>
    <path class="cls-6" d="M25.43,46.79c0-11.41,9.25-20.67,20.67-20.67s20.67,9.26,20.67,20.67-9.26,20.67-20.67,20.67c-11.42-.01-20.67-9.26-20.67-20.67Z"/>
    <path class="cls-4" d="M28.89,46.79c0-9.5,7.7-17.21,17.21-17.21s17.21,7.7,17.21,17.21-7.7,17.21-17.21,17.21-17.21-7.71-17.21-17.21Z"/>
    <path class="cls-2" d="M87.91,26.16l-25.55,7.49s-3.85-5.66-12.14-7.49c7.19-.04,37.69,0,37.69,0Z"/>
    <path class="cls-1" d="M26.18,52.33c-3.59-6.22-18.35-31.7-18.35-31.7l18.92,18.72s-1.94,4-1.21,9.72l.64,3.27h0Z"/>
  </g>
</svg>