<?xml version="1.0" encoding="UTF-8"?>
<svg id="Layer_2" xmlns="http://www.w3.org/2000/svg" xmlns:xlink="http://www.w3.org/1999/xlink" viewBox="0 0 92.6 92.59">
  <defs>
    <style>
      .cls-1 {
        fill: url(#linear-gradient-2);
      }

      .cls-2 {
        fill: url(#linear-gradient);
      }

      .cls-3 {
        fill: #d5d7d8;
      }

      .cls-4 {
        fill: #fff;
      }

      .cls-5 {
        fill: #de5833;
      }

      .cls-6 {
        fill: #2d4f8e;
      }

      .cls-7 {
        fill: #65bc46;
      }

      .cls-8 {
        fill: #43a244;
      }

      .cls-9 {
        fill: #fdd209;
      }
    </style>
    <linearGradient id="linear-gradient" x1="-529.99" y1="465.83" x2="-534.68" y2="465.83" gradientTransform="translate(564 498.24) scale(1 -1)" gradientUnits="userSpaceOnUse">
      <stop offset="0" stop-color="#394a9f"/>
      <stop offset="1" stop-color="#6176b9"/>
    </linearGradient>
    <linearGradient id="linear-gradient-2" x1="-509.61" y1="467.84" x2="-513.89" y2="467.84" xlink:href="#linear-gradient"/>
  </defs>
  <g id="Layer_1-2" data-name="Layer_1">
    <path class="cls-5" d="M46.3,6.83c21.8,0,39.47,17.67,39.47,39.47s-17.67,39.47-39.47,39.47S6.83,68.09,6.83,46.3,24.5,6.83,46.3,6.83Z"/>
    <path class="cls-5" d="M46.3,92.59c25.57,0,46.3-20.73,46.3-46.3S71.87,0,46.3,0,0,20.73,0,46.3s20.73,46.3,46.3,46.3ZM46.3,88.74c-23.44,0-42.44-19-42.44-42.44S22.86,3.86,46.3,3.86s42.44,19,42.44,42.44-19,42.44-42.44,42.44Z"/>
    <path class="cls-3" d="M27.08,19.65c-.01-.66.47-1.04,1.11-1.3-.29.05-.57.12-.83.23-.66.3-1.16,1.45-1.16,1.99,3.24-.33,8.04-.1,11.54.95.26-.04.52-.07.78-.1-3.49-1.55-7.65-2.15-11.44-1.77Z"/>
    <path class="cls-3" d="M27.74,15.66c.07-.01.15-.02.22-.03-.7.09-1.07.34-1.59.42.57.05,2.73,1.06,4.08,1.61.19-.07.37-.15.51-.25-.71-.1-2.46-1.68-3.22-1.75Z"/>
    <path class="cls-3" d="M31.11,23.51c-.19.07-.38.15-.54.24-5.28,2.78-7.62,9.29-6.23,17.08,1.27,7.09,6.48,31.32,8.86,42.71.7.24,1.4.47,2.11.68-2.12-10.26-7.91-37.14-9.26-44.69-1.37-7.68-.04-13.19,5.06-16.01Z"/>
    <path class="cls-4" d="M52.49,79.4c-.09.06-.19.11-.3.17-.08.32-.21.56-.39.68-1.09.72-4.17,1.09-5.8.72-.28-.06-.49-.16-.66-.31-2.78,1.54-6.77,3.6-7.59,3.13-1.26-.73-1.45-10.34-1.26-12.69.13-1.78,6.38,1.1,9.43,2.62.67-.63,2.32-1.05,3.77-1.19-2.2-5.36-3.82-11.5-2.83-15.85-1.38-.96-3.2-3.18-2.82-5.51.29-1.77,4.86-5.11,8.09-5.31,3.25-.2,4.26-.16,6.96-.81.13-.03.28-.07.44-.11,1.66-5.84-2.33-16.01-6.78-20.46-1.45-1.45-3.67-2.36-6.19-2.84-.96-1.33-2.52-2.59-4.73-3.77-4.09-2.17-9.15-3.06-13.87-2.26-.07.01-.15.02-.22.03.76.07,2.51,1.65,3.22,1.75-.14.09-.32.18-.51.25-.66.25-1.55.4-2.26.69-.64.26-1.12.63-1.11,1.3,3.79-.38,7.95.22,11.44,1.77-.26.03-.52.07-.78.1-2.48.35-4.76.99-6.4,1.86-.08.04-.15.08-.23.13-5.1,2.82-6.43,8.33-5.06,16.01,1.35,7.55,7.18,34.85,9.3,45.11,3.49,1.01,6.75,1.82,10.57,1.82,3.23,0,7.13-.72,10.14-1.45-1.06-2.04-2.42-4.29-3.26-5.91-.11.13-.2.25-.31.32ZM54.63,40.69c-1.39,0-2.51-1.12-2.51-2.51s1.12-2.51,2.51-2.51,2.51,1.12,2.51,2.51-1.12,2.51-2.51,2.51ZM56.14,31.24s-1.59-.9-2.81-.89c-2.53.03-3.22,1.15-3.22,1.15,0,0,.43-2.66,3.66-2.13,1.75.29,2.37,1.87,2.37,1.87ZM29.52,34.51s-1.13-2.53,1.9-3.77c3.03-1.24,4.51.71,4.51.71,0,0-2.21-1-4.35.35-2.13,1.34-2.06,2.72-2.06,2.72ZM32.17,39.91c0-1.62,1.31-2.92,2.93-2.92s2.92,1.31,2.92,2.92-1.31,2.92-2.92,2.92c-1.62,0-2.93-1.31-2.93-2.92Z"/>
    <path class="cls-6" d="M38.02,39.91c0-1.62-1.31-2.92-2.92-2.92s-2.93,1.31-2.93,2.92,1.31,2.92,2.93,2.92c1.61,0,2.92-1.31,2.92-2.92ZM36.39,39.7c-.41,0-.76-.34-.76-.76s.34-.76.76-.76.76.34.76.76-.34.76-.76.76Z"/>
    <path class="cls-4" d="M36.39,38.18c-.42,0-.76.34-.76.76s.35.76.76.76c.42,0,.76-.34.76-.76s-.34-.76-.76-.76Z"/>
    <path class="cls-6" d="M54.63,35.67c-1.39,0-2.51,1.12-2.51,2.51s1.12,2.51,2.51,2.51,2.51-1.12,2.51-2.51-1.12-2.51-2.51-2.51ZM55.74,37.99c-.35,0-.65-.29-.65-.65s.3-.65.65-.65c.37,0,.65.29.65.65s-.28.65-.65.65Z"/>
    <path class="cls-4" d="M55.74,36.69c-.35,0-.65.29-.65.65s.3.65.65.65c.37,0,.65-.29.65-.65s-.28-.65-.65-.65Z"/>
    <path class="cls-2" d="M35.93,31.45s-1.48-1.95-4.51-.71c-3.03,1.24-1.89,3.77-1.89,3.77,0,0-.08-1.37,2.05-2.72,2.15-1.35,4.35-.35,4.35-.35Z"/>
    <path class="cls-1" d="M53.77,29.38c-3.23-.53-3.66,2.13-3.66,2.13,0,0,.69-1.12,3.22-1.15,1.22-.02,2.81.89,2.81.89,0,0-.62-1.57-2.37-1.87Z"/>
    <path class="cls-9" d="M52.13,45.87c-3.23.2-7.8,3.55-8.09,5.31-.38,2.32,1.44,4.55,2.82,5.51,0,0,.01,0,.01,0,1.38.96,10.54,4.05,15.09,3.96,4.55-.09,12.03-2.88,11.21-5.11-.82-2.23-8.24,1.97-15.99,1.25-5.73-.53-6.75-3.1-5.48-4.98,1.6-2.36,4.51.45,9.31-.99,4.81-1.43,11.53-4,14.02-5.39,5.77-3.21-2.41-4.55-4.34-3.66-1.83.85-8.21,2.45-11.16,3.17-.16.04-.31.07-.44.11-2.7.65-3.71.6-6.96.81Z"/>
    <path class="cls-7" d="M44.91,75.17c0-.33.27-.63.7-.88.01-.2.12-.39.31-.57-3.05-1.51-9.3-4.4-9.43-2.62-.19,2.36,0,11.97,1.26,12.69.82.46,4.81-1.59,7.59-3.13-.8-.68-.43-2.34-.43-5.5Z"/>
    <path class="cls-7" d="M52.76,79.07s.03.01.04.02c2.49.96,7.45,2.77,8.52,2.37,1.46-.55,1.09-12.15-.54-12.52-1.3-.29-6.3,3.23-8.26,4.66.35,1.47.77,4.38.24,5.47Z"/>
    <path class="cls-8" d="M46.69,80.13c-1.63-.36-1.09-2-1.09-5.8,0-.01.01-.02.01-.04-.43.25-.7.55-.7.88,0,3.15-.37,4.81.43,5.5.17.14.38.24.66.31,1.63.36,4.71,0,5.8-.72.18-.12.31-.36.39-.68-1.28.61-4,.9-5.5.56Z"/>
    <path class="cls-7" d="M45.92,73.72c-.19.17-.3.36-.31.57,0,.01-.01.02-.01.04,0,3.81-.54,5.44,1.09,5.8,1.5.34,4.22.05,5.5-.56.11-.05.21-.11.3-.17.11-.07.2-.19.27-.34.53-1.09.11-4-.24-5.47-.08-.32-.15-.58-.21-.73-.15-.37-1.31-.47-2.62-.34-1.45.14-3.1.56-3.77,1.19Z"/>
  </g>
</svg>