<?xml version="1.0" encoding="UTF-8"?>
<svg id="Layer_2" xmlns="http://www.w3.org/2000/svg" xmlns:xlink="http://www.w3.org/1999/xlink" viewBox="0 0 93.08 93">
  <defs>
    <style>
      .cls-1 {
        fill: url(#radial-gradient);
        opacity: .35;
      }

      .cls-1, .cls-2 {
        isolation: isolate;
      }

      .cls-3 {
        fill: url(#radial-gradient-4);
      }

      .cls-4 {
        fill: url(#radial-gradient-3);
      }

      .cls-5 {
        fill: url(#linear-gradient-2);
      }

      .cls-6 {
        fill: url(#linear-gradient);
      }

      .cls-2 {
        fill: url(#radial-gradient-2);
        opacity: .41;
      }
    </style>
    <linearGradient id="linear-gradient" x1="-542.65" y1="948.35" x2="-477.83" y2="948.35" gradientTransform="translate(564 1012.65) scale(1 -1)" gradientUnits="userSpaceOnUse">
      <stop offset="0" stop-color="#0c59a4"/>
      <stop offset="1" stop-color="#114a8b"/>
    </linearGradient>
    <radialGradient id="radial-gradient" cx="-710.64" cy="931.89" fx="-710.64" fy="931.89" r="1" gradientTransform="translate(24700.11 30736.6) scale(34.68 -32.91)" gradientUnits="userSpaceOnUse">
      <stop offset=".72" stop-color="#000" stop-opacity="0"/>
      <stop offset=".95" stop-color="#000" stop-opacity=".53"/>
      <stop offset="1" stop-color="#000"/>
    </radialGradient>
    <linearGradient id="linear-gradient-2" x1="-508.47" y1="976.44" x2="-548.93" y2="932.33" gradientTransform="translate(564 1012.65) scale(1 -1)" gradientUnits="userSpaceOnUse">
      <stop offset="0" stop-color="#1b9de2"/>
      <stop offset=".16" stop-color="#1595df"/>
      <stop offset=".67" stop-color="#0680d7"/>
      <stop offset="1" stop-color="#0078d4"/>
    </linearGradient>
    <radialGradient id="radial-gradient-2" cx="-697.25" cy="918.38" fx="-697.25" fy="918.38" r="1" gradientTransform="translate(-32789.12 -41577.02) rotate(-81.38) scale(52.1 42.13) skewX(.08)" gradientUnits="userSpaceOnUse">
      <stop offset=".76" stop-color="#000" stop-opacity="0"/>
      <stop offset=".95" stop-color="#000" stop-opacity=".5"/>
      <stop offset="1" stop-color="#000"/>
    </radialGradient>
    <radialGradient id="radial-gradient-3" cx="-698.47" cy="932.24" fx="-698.47" fy="932.24" r="1" gradientTransform="translate(144092.53 56860.02) rotate(92.29) scale(73.59 156.87) skewX(.31)" gradientUnits="userSpaceOnUse">
      <stop offset="0" stop-color="#35c1f1"/>
      <stop offset=".11" stop-color="#34c1ed"/>
      <stop offset=".23" stop-color="#2fc2df"/>
      <stop offset=".31" stop-color="#2bc3d2"/>
      <stop offset=".67" stop-color="#36c752"/>
    </radialGradient>
    <radialGradient id="radial-gradient-4" cx="-703.47" cy="943.64" fx="-703.47" fy="943.64" r="1" gradientTransform="translate(33106.29 16232.37) rotate(73.73) scale(35.36 28.78) skewX(.11)" gradientUnits="userSpaceOnUse">
      <stop offset="0" stop-color="#66eb6e"/>
      <stop offset="1" stop-color="#66eb6e" stop-opacity="0"/>
    </radialGradient>
  </defs>
  <g id="Layer_1-2" data-name="Layer_1">
    <path class="cls-6" d="M84.01,69.21c-1.24.65-2.52,1.22-3.83,1.71-4.17,1.56-8.6,2.36-13.05,2.35-17.2,0-32.19-11.82-32.19-27,.02-2.03.59-4.03,1.64-5.77,1.05-1.74,2.55-3.18,4.34-4.15-15.56.65-19.56,16.85-19.56,26.35,0,26.84,24.76,29.56,30.09,29.56,2.88,0,7.21-.84,9.82-1.66l.48-.16c10.02-3.46,18.56-10.22,24.21-19.18.17-.27.25-.6.22-.92-.03-.32-.17-.62-.39-.86-.22-.24-.52-.39-.83-.44-.32-.05-.65,0-.93.17Z"/>
    <path class="cls-1" d="M84.01,69.21c-1.24.65-2.52,1.22-3.83,1.71-4.17,1.56-8.6,2.36-13.05,2.35-17.2,0-32.19-11.82-32.19-27,.02-2.03.59-4.03,1.64-5.77,1.05-1.74,2.55-3.18,4.34-4.15-15.56.65-19.56,16.85-19.56,26.35,0,26.84,24.76,29.56,30.09,29.56,2.88,0,7.21-.84,9.82-1.66l.48-.16c10.02-3.46,18.56-10.22,24.21-19.18.17-.27.25-.6.22-.92-.03-.32-.17-.62-.39-.86-.22-.24-.52-.39-.83-.44-.32-.05-.65,0-.93.17Z"/>
    <path class="cls-5" d="M38.44,87.69c-3.24-2.01-6.05-4.65-8.27-7.75-2.52-3.45-4.26-7.42-5.09-11.62-.83-4.2-.73-8.52.3-12.68,1.02-4.15,2.94-8.03,5.63-11.37,2.68-3.33,6.06-6.04,9.9-7.93,1.13-.53,3.07-1.5,5.65-1.45,1.82.01,3.6.45,5.22,1.27,1.62.82,3.03,2,4.11,3.46,1.47,1.96,2.28,4.33,2.31,6.78,0-.08,8.89-28.91-29.08-28.91C13.17,17.49.04,32.62.04,45.9c-.06,7.02,1.44,13.97,4.4,20.34,4.84,10.32,13.3,18.5,23.79,22.99,10.48,4.49,22.25,4.99,33.07,1.38-3.79,1.19-7.79,1.55-11.73,1.05-3.94-.5-7.73-1.85-11.09-3.96h-.03Z"/>
    <path class="cls-2" d="M38.44,87.69c-3.24-2.01-6.05-4.65-8.27-7.75-2.52-3.45-4.26-7.42-5.09-11.62-.83-4.2-.73-8.52.3-12.68,1.02-4.15,2.94-8.03,5.63-11.37,2.68-3.33,6.06-6.04,9.9-7.93,1.13-.53,3.07-1.5,5.65-1.45,1.82.01,3.6.45,5.22,1.27,1.62.82,3.03,2,4.11,3.46,1.47,1.96,2.28,4.33,2.31,6.78,0-.08,8.89-28.91-29.08-28.91C13.17,17.49.04,32.62.04,45.9c-.06,7.02,1.44,13.97,4.4,20.34,4.84,10.32,13.3,18.5,23.79,22.99,10.48,4.49,22.25,4.99,33.07,1.38-3.79,1.19-7.79,1.55-11.73,1.05-3.94-.5-7.73-1.85-11.09-3.96h-.03Z"/>
    <path class="cls-4" d="M55.38,54.07c-.29.38-1.2.91-1.2,2.06,0,.95.62,1.86,1.72,2.63,5.23,3.63,15.08,3.15,15.11,3.15,3.87,0,7.67-1.06,11.01-3.03,3.36-1.96,6.15-4.76,8.09-8.13,1.94-3.37,2.97-7.19,2.97-11.07.09-8.14-2.91-13.55-4.12-15.95C81.25,8.66,64.62,0,46.54,0c-12.23,0-23.97,4.81-32.68,13.39C5.15,21.96.17,33.62,0,45.84c.17-13.27,13.38-23.99,29.09-23.99,1.27,0,8.53.12,15.27,3.66,5.94,3.12,9.05,6.88,11.22,10.61,2.25,3.88,2.65,8.77,2.65,10.72s-1,4.84-2.84,7.23Z"/>
    <path class="cls-3" d="M55.38,54.07c-.29.38-1.2.91-1.2,2.06,0,.95.62,1.86,1.72,2.63,5.23,3.63,15.08,3.15,15.11,3.15,3.87,0,7.67-1.06,11.01-3.03,3.36-1.96,6.15-4.76,8.09-8.13,1.94-3.37,2.97-7.19,2.97-11.07.09-8.14-2.91-13.55-4.12-15.95C81.25,8.66,64.62,0,46.54,0c-12.23,0-23.97,4.81-32.68,13.39C5.15,21.96.17,33.62,0,45.84c.17-13.27,13.38-23.99,29.09-23.99,1.27,0,8.53.12,15.27,3.66,5.94,3.12,9.05,6.88,11.22,10.61,2.25,3.88,2.65,8.77,2.65,10.72s-1,4.84-2.84,7.23Z"/>
  </g>
</svg>