<?xml version="1.0" encoding="UTF-8"?>
<svg id="Layer_2" xmlns="http://www.w3.org/2000/svg" xmlns:xlink="http://www.w3.org/1999/xlink" viewBox="0 0 90.04 93">
  <defs>
    <style>
      .cls-1 {
        fill: url(#radial-gradient-7);
      }

      .cls-2 {
        fill: url(#radial-gradient-6);
      }

      .cls-3 {
        fill: url(#radial-gradient-5);
      }

      .cls-4 {
        fill: url(#radial-gradient-4);
      }

      .cls-5 {
        fill: url(#radial-gradient-9);
      }

      .cls-6 {
        fill: url(#radial-gradient-8);
      }

      .cls-7 {
        fill: url(#radial-gradient-3);
      }

      .cls-8 {
        fill: url(#radial-gradient-2);
      }

      .cls-9 {
        fill: url(#linear-gradient-2);
      }

      .cls-10 {
        fill: url(#radial-gradient);
      }

      .cls-11 {
        fill: url(#linear-gradient);
      }

      .cls-12 {
        fill: url(#radial-gradient-10);
      }
    </style>
    <linearGradient id="linear-gradient" x1="-483.2" y1="998.25" x2="-558.02" y2="926.06" gradientTransform="translate(564 1012.65) scale(1 -1)" gradientUnits="userSpaceOnUse">
      <stop offset=".05" stop-color="#fff44f"/>
      <stop offset=".11" stop-color="#ffe847"/>
      <stop offset=".23" stop-color="#ffc830"/>
      <stop offset=".37" stop-color="#ff980e"/>
      <stop offset=".4" stop-color="#ff8b16"/>
      <stop offset=".46" stop-color="#ff672a"/>
      <stop offset=".53" stop-color="#ff3647"/>
      <stop offset=".7" stop-color="#e31587"/>
    </linearGradient>
    <radialGradient id="radial-gradient" cx="-554.35" cy="930.22" fx="-554.35" fy="930.22" r="1" gradientTransform="translate(52166.83 87418.91) scale(93.97 -93.97)" gradientUnits="userSpaceOnUse">
      <stop offset=".13" stop-color="#ffbd4f"/>
      <stop offset=".19" stop-color="#ffac31"/>
      <stop offset=".25" stop-color="#ff9d17"/>
      <stop offset=".28" stop-color="#ff980e"/>
      <stop offset=".4" stop-color="#ff563b"/>
      <stop offset=".47" stop-color="#ff3750"/>
      <stop offset=".71" stop-color="#f5156c"/>
      <stop offset=".78" stop-color="#eb0878"/>
      <stop offset=".86" stop-color="#e50080"/>
    </radialGradient>
    <radialGradient id="radial-gradient-2" cx="-554.35" cy="930.22" fx="-554.35" fy="930.22" r="1" gradientTransform="translate(52132.49 87457.33) scale(93.97 -93.97)" gradientUnits="userSpaceOnUse">
      <stop offset=".3" stop-color="#960e18"/>
      <stop offset=".35" stop-color="#b11927" stop-opacity=".74"/>
      <stop offset=".43" stop-color="#db293d" stop-opacity=".34"/>
      <stop offset=".5" stop-color="#f5334b" stop-opacity=".09"/>
      <stop offset=".53" stop-color="#ff3750" stop-opacity="0"/>
    </radialGradient>
    <radialGradient id="radial-gradient-3" cx="-556.19" cy="930.56" fx="-556.19" fy="930.56" r="1" gradientTransform="translate(37915.98 63336.04) scale(68.07 -68.07)" gradientUnits="userSpaceOnUse">
      <stop offset=".13" stop-color="#fff44f"/>
      <stop offset=".25" stop-color="#ffdc3e"/>
      <stop offset=".51" stop-color="#ff9d12"/>
      <stop offset=".53" stop-color="#ff980e"/>
    </radialGradient>
    <radialGradient id="radial-gradient-4" cx="-559.66" cy="931.21" fx="-559.66" fy="931.21" r="1" gradientTransform="translate(25072.42 41736.56) scale(44.74 -44.74)" gradientUnits="userSpaceOnUse">
      <stop offset=".35" stop-color="#3a8ee6"/>
      <stop offset=".47" stop-color="#5c79f0"/>
      <stop offset=".67" stop-color="#9059ff"/>
      <stop offset="1" stop-color="#c139e6"/>
    </radialGradient>
    <radialGradient id="radial-gradient-5" cx="-567.28" cy="936.12" fx="-567.28" fy="936.12" r="1" gradientTransform="translate(19234.53 22149.02) rotate(-13.59) scale(23.72 -27.77)" gradientUnits="userSpaceOnUse">
      <stop offset=".21" stop-color="#9059ff" stop-opacity="0"/>
      <stop offset=".28" stop-color="#8c4ff3" stop-opacity=".06"/>
      <stop offset=".75" stop-color="#7716a8" stop-opacity=".45"/>
      <stop offset=".97" stop-color="#6e008b" stop-opacity=".6"/>
    </radialGradient>
    <radialGradient id="radial-gradient-6" cx="-563.62" cy="931.95" fx="-563.62" fy="931.95" r="1" gradientTransform="translate(18182.74 30002.63) scale(32.19 -32.19)" gradientUnits="userSpaceOnUse">
      <stop offset="0" stop-color="#ffe226"/>
      <stop offset=".12" stop-color="#ffdb27"/>
      <stop offset=".29" stop-color="#ffc82a"/>
      <stop offset=".5" stop-color="#ffa930"/>
      <stop offset=".73" stop-color="#ff7e37"/>
      <stop offset=".79" stop-color="#ff7139"/>
    </radialGradient>
    <radialGradient id="radial-gradient-7" cx="-552.82" cy="929.94" fx="-552.82" fy="929.94" r="1" gradientTransform="translate(75984.23 127690.95) scale(137.33 -137.33)" gradientUnits="userSpaceOnUse">
      <stop offset=".11" stop-color="#fff44f"/>
      <stop offset=".46" stop-color="#ff980e"/>
      <stop offset=".62" stop-color="#ff5634"/>
      <stop offset=".72" stop-color="#ff3647"/>
      <stop offset=".9" stop-color="#e31587"/>
    </radialGradient>
    <radialGradient id="radial-gradient-8" cx="-550.83" cy="922.63" fx="-550.83" fy="922.63" r="1" gradientTransform="translate(-54733.28 61532.26) rotate(83.98) scale(100.65 -66.06)" gradientUnits="userSpaceOnUse">
      <stop offset="0" stop-color="#fff44f"/>
      <stop offset=".06" stop-color="#ffe847"/>
      <stop offset=".17" stop-color="#ffc830"/>
      <stop offset=".3" stop-color="#ff980e"/>
      <stop offset=".36" stop-color="#ff8b16"/>
      <stop offset=".46" stop-color="#ff672a"/>
      <stop offset=".57" stop-color="#ff3647"/>
      <stop offset=".74" stop-color="#e31587"/>
    </radialGradient>
    <radialGradient id="radial-gradient-9" cx="-554.81" cy="930.31" fx="-554.81" fy="930.31" r="1" gradientTransform="translate(47607.78 79778.27) scale(85.73 -85.73)" gradientUnits="userSpaceOnUse">
      <stop offset=".14" stop-color="#fff44f"/>
      <stop offset=".48" stop-color="#ff980e"/>
      <stop offset=".59" stop-color="#ff5634"/>
      <stop offset=".66" stop-color="#ff3647"/>
      <stop offset=".9" stop-color="#e31587"/>
    </radialGradient>
    <radialGradient id="radial-gradient-10" cx="-554.36" cy="930.22" fx="-554.36" fy="930.22" r="1" gradientTransform="translate(52082.23 87312.03) scale(93.84 -93.84)" gradientUnits="userSpaceOnUse">
      <stop offset=".09" stop-color="#fff44f"/>
      <stop offset=".23" stop-color="#ffe141"/>
      <stop offset=".51" stop-color="#ffaf1e"/>
      <stop offset=".63" stop-color="#ff980e"/>
    </radialGradient>
    <linearGradient id="linear-gradient-2" x1="-484.09" y1="998.63" x2="-547.76" y2="934.97" gradientTransform="translate(564 1012.65) scale(1 -1)" gradientUnits="userSpaceOnUse">
      <stop offset=".17" stop-color="#fff44f" stop-opacity=".8"/>
      <stop offset=".27" stop-color="#fff44f" stop-opacity=".63"/>
      <stop offset=".49" stop-color="#fff44f" stop-opacity=".22"/>
      <stop offset=".6" stop-color="#fff44f" stop-opacity="0"/>
    </linearGradient>
  </defs>
  <g id="Layer_1-2" data-name="Layer_1">
    <path class="cls-11" d="M86.78,31.2c-1.96-4.71-5.93-9.8-9.04-11.41,2.22,4.3,3.76,8.91,4.56,13.68v.08c-5.09-12.71-13.73-17.83-20.79-28.98-.36-.56-.71-1.13-1.06-1.73-.2-.34-.36-.65-.5-.93-.29-.57-.52-1.17-.67-1.79,0-.03-.01-.06-.03-.08-.02-.02-.04-.04-.07-.04-.03,0-.06,0-.08,0,0,0-.01.01-.02.01,0,0-.02.01-.03.02l.02-.03c-11.32,6.63-15.16,18.9-15.52,25.04-4.52.31-8.84,1.98-12.4,4.78-.37-.31-.76-.61-1.16-.88-1.03-3.59-1.07-7.4-.13-11.02-4.16,2.01-7.85,4.87-10.85,8.39h-.02c-1.79-2.26-1.66-9.73-1.56-11.29-.53.21-1.03.48-1.51.8-1.58,1.13-3.05,2.39-4.41,3.77-1.54,1.56-2.95,3.26-4.21,5.06h0s0,0,0,0c-2.9,4.11-4.95,8.75-6.05,13.66l-.06.3c-.08.4-.39,2.38-.44,2.81,0,.03,0,.07-.01.1-.39,2.05-.64,4.13-.73,6.21v.23c0,11.29,4.25,22.16,11.89,30.47,7.64,8.31,18.11,13.45,29.36,14.41,11.24.96,22.44-2.34,31.37-9.24,8.93-6.9,14.95-16.89,16.87-28.02.08-.58.14-1.16.21-1.74.93-7.67-.08-15.46-2.92-22.64ZM34.83,66.48c.21.1.41.21.62.31l.03.02c-.22-.1-.44-.21-.65-.33ZM82.31,33.56v-.04.05s0,0,0,0Z"/>
    <path class="cls-10" d="M86.78,31.2c-1.96-4.71-5.93-9.8-9.04-11.41,2.22,4.3,3.76,8.91,4.56,13.68v.09c3.48,9.94,2.98,20.84-1.39,30.42-5.17,11.08-17.67,22.45-37.24,21.89C22.51,85.28,3.89,69.58.41,49.03c-.63-3.24,0-4.88.32-7.52-.44,2.05-.68,4.13-.73,6.22v.23c0,11.29,4.25,22.16,11.89,30.47s18.11,13.45,29.36,14.41c11.24.96,22.44-2.34,31.37-9.24,8.93-6.9,14.95-16.89,16.87-28.02.08-.58.14-1.16.21-1.74.93-7.67-.08-15.46-2.92-22.64Z"/>
    <path class="cls-8" d="M86.78,31.2c-1.96-4.71-5.93-9.8-9.04-11.41,2.22,4.3,3.76,8.91,4.56,13.68v.09c3.48,9.94,2.98,20.84-1.39,30.42-5.17,11.08-17.67,22.45-37.24,21.89C22.51,85.28,3.89,69.58.41,49.03c-.63-3.24,0-4.88.32-7.52-.44,2.05-.68,4.13-.73,6.22v.23c0,11.29,4.25,22.16,11.89,30.47s18.11,13.45,29.36,14.41c11.24.96,22.44-2.34,31.37-9.24,8.93-6.9,14.95-16.89,16.87-28.02.08-.58.14-1.16.21-1.74.93-7.67-.08-15.46-2.92-22.64Z"/>
    <path class="cls-7" d="M64.87,36.5c.1.07.19.14.28.21-1.13-2.01-2.54-3.85-4.19-5.46C46.96,17.23,57.29.86,59.04.03l.02-.03c-11.32,6.63-15.16,18.9-15.52,25.04.53-.04,1.05-.08,1.58-.08,4.02,0,7.96,1.08,11.43,3.1,3.47,2.03,6.34,4.93,8.32,8.43Z"/>
    <path class="cls-4" d="M45.15,39.3c-.07,1.12-4.04,4.99-5.42,4.99-12.82,0-14.9,7.75-14.9,7.75.57,6.53,5.12,11.91,10.62,14.75.25.13.51.25.76.36.44.2.88.38,1.32.54,1.89.67,3.86,1.05,5.86,1.13,22.47,1.05,26.82-26.86,10.61-34.97,3.82-.5,7.7.44,10.87,2.64-1.98-3.5-4.85-6.4-8.32-8.43-3.47-2.03-7.41-3.1-11.43-3.1-.54,0-1.06.04-1.58.08-4.52.31-8.84,1.98-12.4,4.78.69.58,1.46,1.36,3.1,2.97,3.06,3.01,10.9,6.13,10.92,6.5Z"/>
    <path class="cls-3" d="M45.15,39.3c-.07,1.12-4.04,4.99-5.42,4.99-12.82,0-14.9,7.75-14.9,7.75.57,6.53,5.12,11.91,10.62,14.75.25.13.51.25.76.36.44.2.88.38,1.32.54,1.89.67,3.86,1.05,5.86,1.13,22.47,1.05,26.82-26.86,10.61-34.97,3.82-.5,7.7.44,10.87,2.64-1.98-3.5-4.85-6.4-8.32-8.43-3.47-2.03-7.41-3.1-11.43-3.1-.54,0-1.06.04-1.58.08-4.52.31-8.84,1.98-12.4,4.78.69.58,1.46,1.36,3.1,2.97,3.06,3.01,10.9,6.13,10.92,6.5Z"/>
    <path class="cls-2" d="M29.03,28.33c.36.23.67.44.93.62-1.03-3.59-1.07-7.4-.13-11.02-4.16,2.01-7.85,4.87-10.85,8.39.22,0,6.76-.12,10.05,2.01Z"/>
    <path class="cls-1" d="M.41,49.03c3.48,20.55,22.11,36.25,43.26,36.85,19.57.55,32.08-10.81,37.24-21.89,4.37-9.58,4.88-20.48,1.4-30.42v-.04s0-.05,0-.04v.08c1.61,10.44-3.7,20.55-12,27.39l-.02.06c-16.18,13.17-31.65,7.95-34.79,5.81-.22-.1-.44-.21-.65-.33-9.43-4.51-13.33-13.1-12.49-20.47-2.24.03-4.44-.58-6.33-1.78-1.89-1.19-3.4-2.91-4.34-4.94,2.48-1.52,5.3-2.37,8.2-2.49,2.9-.12,5.78.51,8.37,1.83,5.34,2.42,11.41,2.66,16.92.67-.02-.37-7.86-3.49-10.92-6.5-1.63-1.61-2.41-2.39-3.1-2.97-.37-.31-.76-.61-1.16-.88-.27-.18-.57-.38-.93-.62-3.29-2.14-9.83-2.02-10.04-2.01h-.02c-1.79-2.26-1.66-9.73-1.56-11.29-.53.21-1.03.48-1.51.8-1.58,1.13-3.05,2.39-4.4,3.77-1.55,1.56-2.96,3.25-4.23,5.04h0s0,0,0,0c-2.9,4.11-4.95,8.75-6.05,13.66-.02.09-1.62,7.09-.83,10.72Z"/>
    <path class="cls-6" d="M60.97,31.24c1.65,1.62,3.05,3.46,4.19,5.47.25.19.48.37.68.55,10.22,9.42,4.86,22.74,4.47,23.68,8.3-6.84,13.61-16.95,12.01-27.39-5.1-12.71-13.74-17.83-20.8-28.99-.36-.56-.71-1.13-1.06-1.73-.2-.34-.36-.65-.5-.93-.29-.57-.52-1.17-.67-1.79,0-.03-.01-.06-.03-.08-.02-.02-.04-.04-.07-.04-.03,0-.06,0-.08,0,0,0-.01.01-.02.01,0,0-.02.01-.03.02-1.74.83-12.08,17.2,1.93,31.21Z"/>
    <path class="cls-5" d="M65.82,37.26c-.2-.18-.43-.37-.68-.55-.09-.07-.18-.14-.28-.21-3.17-2.2-7.04-3.14-10.87-2.64,16.21,8.11,11.86,36.02-10.61,34.97-2-.08-3.98-.46-5.86-1.13-.44-.17-.88-.35-1.32-.54-.26-.12-.51-.23-.76-.36l.03.02c3.13,2.14,18.61,7.36,34.79-5.81l.03-.06c.4-.94,5.76-14.26-4.47-23.68Z"/>
    <path class="cls-12" d="M24.83,52.04s2.08-7.75,14.9-7.75c1.39,0,5.35-3.87,5.42-4.99-5.51,2-11.59,1.76-16.92-.67-2.59-1.31-5.47-1.94-8.37-1.83-2.9.12-5.72.97-8.2,2.49.94,2.03,2.45,3.75,4.34,4.94,1.89,1.19,4.09,1.81,6.33,1.78-.83,7.37,3.06,15.96,12.49,20.47.21.1.41.21.62.31-5.5-2.84-10.05-8.22-10.62-14.75Z"/>
    <path class="cls-9" d="M86.78,31.2c-1.96-4.71-5.93-9.8-9.04-11.41,2.22,4.3,3.76,8.91,4.56,13.68v.08c-5.09-12.71-13.73-17.83-20.79-28.98-.36-.56-.71-1.13-1.06-1.73-.2-.34-.36-.65-.5-.93-.29-.57-.52-1.17-.67-1.79,0-.03-.01-.06-.03-.08-.02-.02-.04-.04-.07-.04-.03,0-.06,0-.08,0,0,0-.01.01-.02.01,0,0-.02.01-.03.02l.02-.03c-11.32,6.63-15.16,18.9-15.52,25.04.53-.04,1.05-.08,1.58-.08,4.02,0,7.96,1.08,11.43,3.1,3.47,2.03,6.34,4.93,8.32,8.43-3.17-2.2-7.04-3.14-10.87-2.64,16.21,8.11,11.86,36.02-10.61,34.97-2-.08-3.98-.46-5.86-1.13-.44-.17-.88-.35-1.32-.54-.26-.12-.51-.23-.76-.36l.03.02c-.22-.1-.44-.21-.65-.33.21.1.41.21.62.31-5.5-2.84-10.05-8.22-10.62-14.75,0,0,2.08-7.75,14.9-7.75,1.39,0,5.35-3.87,5.42-4.99-.02-.37-7.86-3.49-10.92-6.5-1.63-1.61-2.41-2.39-3.1-2.97-.37-.31-.76-.61-1.16-.88-1.03-3.59-1.07-7.4-.13-11.02-4.16,2.01-7.85,4.87-10.85,8.39h-.02c-1.79-2.26-1.66-9.73-1.56-11.29-.53.21-1.03.48-1.51.8-1.58,1.13-3.05,2.39-4.41,3.77-1.54,1.56-2.95,3.26-4.21,5.06h0s0,0,0,0c-2.9,4.11-4.95,8.75-6.05,13.66l-.06.3c-.08.4-.46,2.41-.52,2.84,0-.03,0,.03,0,0-.35,2.08-.57,4.18-.66,6.28v.23c0,11.29,4.25,22.16,11.89,30.47,7.64,8.31,18.11,13.45,29.36,14.41,11.24.96,22.44-2.34,31.37-9.24,8.93-6.9,14.95-16.89,16.87-28.02.08-.58.14-1.16.21-1.74.93-7.67-.08-15.46-2.92-22.64ZM82.31,33.51v.05s0-.05,0-.05Z"/>
  </g>
</svg>