<?xml version="1.0" encoding="UTF-8"?>
<svg id="Layer_2" xmlns="http://www.w3.org/2000/svg" viewBox="0 0 93 93">
  <defs>
    <style>
      .cls-1 {
        isolation: isolate;
        opacity: .6;
      }

      .cls-2 {
        fill: #0080f5;
      }

      .cls-3 {
        fill: #fff;
      }

      .cls-4 {
        fill: #a6d3fc;
      }
    </style>
  </defs>
  <g id="Layer_1-2" data-name="Layer_1">
    <path class="cls-1" d="M0,0h93v93H0V0Z"/>
    <path class="cls-3" d="M0,0h93v93H0V0Z"/>
    <path class="cls-4" d="M2.08,77.5c17.76-9.07,18.14-9.07,40.07-12.85,6.43-3.78,35.91,7.56,49.15,11.34v15.12H1.32l.57-13.61h.19Z"/>
    <path class="cls-2" d="M0,0h93v93H0V0ZM91.11,75.99c-.76,0-3.78.76-6.05,2.27,0,1.51,0,2.27-.76,3.4-3.02-10.59-13.23-13.23-20.79-7.94l1.13-3.4c-15.12-11.34-30.24-4.54-38.18,5.29,0,0-.38-1.89,1.89-5.29-4.91-2.27-13.61,1.13-15.88,4.16l3.03,2.65c-4.54-1.89-10.21-.38-13.61.76v13.23h89.22v-15.12ZM31.75,40.45h29.87v24.2l2.27,1.51h12.47v-27.6c0-10.21-10.21-13.23-15.12-13.23H17.01v40.83h14.74v-25.71ZM54.06,62.38v-14.37h-14.75v14.37c3.78-1.13,9.83-1.51,14.75-.38v.38Z"/>
  </g>
</svg>