<?xml version="1.0" encoding="UTF-8"?>
<svg id="Layer_2" xmlns="http://www.w3.org/2000/svg" xmlns:xlink="http://www.w3.org/1999/xlink" viewBox="0 0 93 93">
  <defs>
    <style>
      .cls-1 {
        fill: url(#linear-gradient-2);
      }

      .cls-2 {
        fill: url(#linear-gradient);
      }
    </style>
    <linearGradient id="linear-gradient" x1="-525.26" y1="1011.13" x2="-525.26" y2="921" gradientTransform="translate(564 1012.65) scale(1 -1)" gradientUnits="userSpaceOnUse">
      <stop offset=".3" stop-color="#ff1b2d"/>
      <stop offset=".44" stop-color="#fa1a2c"/>
      <stop offset=".59" stop-color="#ed1528"/>
      <stop offset=".76" stop-color="#d60e21"/>
      <stop offset=".93" stop-color="#b70519"/>
      <stop offset="1" stop-color="#a70014"/>
    </linearGradient>
    <linearGradient id="linear-gradient-2" x1="-501.9" y1="1005.82" x2="-501.9" y2="926.11" gradientTransform="translate(564 1012.65) scale(1 -1)" gradientUnits="userSpaceOnUse">
      <stop offset="0" stop-color="#9c0000"/>
      <stop offset=".7" stop-color="#ff4b4b"/>
    </linearGradient>
  </defs>
  <g id="Layer_1-2" data-name="Layer_1">
    <path class="cls-2" d="M31.19,72.71c-5.14-6.07-8.47-15.04-8.7-25.11v-2.19c.22-10.07,3.55-19.04,8.7-25.11,6.68-8.66,16.59-14.15,27.66-14.15,6.81,0,13.19,2.08,18.64,5.7C69.3,4.51,58.52.05,46.68,0h-.18C20.82,0,0,20.82,0,46.5s19.63,45.29,44.29,46.44c.73.04,1.47.06,2.21.06,11.9,0,22.77-4.47,30.99-11.83-5.45,3.61-11.82,5.69-18.64,5.69-11.07,0-20.98-5.5-27.66-14.15Z"/>
    <path class="cls-1" d="M31.19,20.29c4.27-5.04,9.77-8.07,15.8-8.07,13.54,0,24.51,15.34,24.51,34.28s-10.97,34.28-24.51,34.28c-6.02,0-11.53-3.04-15.8-8.07,6.68,8.66,16.59,14.15,27.66,14.15,6.81,0,13.19-2.08,18.64-5.69,9.52-8.52,15.51-20.9,15.51-34.67s-5.99-26.15-15.51-34.66c-5.45-3.62-11.82-5.7-18.64-5.7-11.07,0-20.98,5.5-27.66,14.15Z"/>
  </g>
</svg>