<?xml version="1.0" encoding="UTF-8"?>
<svg id="Layer_2" xmlns="http://www.w3.org/2000/svg" viewBox="0 0 93 93">
  <defs>
    <style>
      .cls-1 {
        fill: #fa1e4e;
      }
    </style>
  </defs>
  <g id="Layer_1-2" data-name="Layer_1">
    <path class="cls-1" d="M74.67,77.77c-4.96,3.25-10.62,4.98-16.4,4.98-9.46,0-18.42-4.6-24.6-12.62-.02-.03-.04-.05-.07-.08-4.74-5.59-7.57-13.81-7.76-22.49v-2.04c.19-8.74,3.02-16.95,7.83-22.62,6.18-8.02,15.15-12.62,24.6-12.62,5.78,0,11.44,1.72,16.4,4.98,8.85,7.98,13.92,19.36,13.92,31.27s-5.08,23.29-13.92,31.27h0ZM44.49,88.54c-22.48-1.05-40.09-19.52-40.09-42.04S23.29,4.41,46.54,4.41c.01,0,.11,0,.12,0,3.68.01,7.31.51,10.81,1.45-10.54.25-20.44,5.44-27.23,14.25-5.38,6.35-8.59,15.57-8.81,25.34v2.14c.22,9.7,3.41,18.91,8.77,25.26,6.85,8.87,16.74,14.04,27.26,14.29-4.18,1.13-8.62,1.61-12.98,1.4h0ZM77.49,11.84C69.01,4.25,58.07.05,46.63,0c-.01,0-.11,0-.13,0C20.86,0,0,20.86,0,46.5s19.45,45.28,44.29,46.45c.73.03,1.47.05,2.21.05,11.45,0,22.45-4.2,30.98-11.83h0c9.86-8.82,15.51-21.46,15.51-34.67s-5.65-25.85-15.51-34.66"/>
    <path class="cls-1" d="M55.8,17.17c8.12,5.32,13.72,16.45,13.72,29.33s-5.59,24.01-13.72,29.33c10.37-.88,18.6-13.67,18.6-29.33s-8.23-28.45-18.6-29.33Z"/>
  </g>
</svg>