<?xml version="1.0" encoding="UTF-8"?>
<svg id="Layer_2" xmlns="http://www.w3.org/2000/svg" xmlns:xlink="http://www.w3.org/1999/xlink" viewBox="0 0 93.75 93.75">
  <defs>
    <style>
      .cls-1 {
        fill: #f1f1f1;
      }

      .cls-2 {
        isolation: isolate;
        opacity: .24;
      }

      .cls-3 {
        fill: url(#radial-gradient);
      }

      .cls-4 {
        fill: #ff5150;
      }

      .cls-5 {
        opacity: .41;
      }

      .cls-6 {
        fill: #f4f2f3;
      }

      .cls-7 {
        fill: url(#linear-gradient);
        stroke: #cdcdcd;
        stroke-linecap: round;
        stroke-linejoin: round;
        stroke-width: .75px;
      }
    </style>
    <linearGradient id="linear-gradient" x1="-517.12" y1="406.03" x2="-517.12" y2="499.03" gradientTransform="translate(564 499.41) scale(1 -1)" gradientUnits="userSpaceOnUse">
      <stop offset="0" stop-color="#bdbdbd"/>
      <stop offset="1" stop-color="#fff"/>
    </linearGradient>
    <radialGradient id="radial-gradient" cx="-576.68" cy="668.99" fx="-576.68" fy="668.99" r="1" gradientTransform="translate(26862.81 31148.56) scale(46.5 -46.5)" gradientUnits="userSpaceOnUse">
      <stop offset="0" stop-color="#06c2e7"/>
      <stop offset=".25" stop-color="#0db8ec"/>
      <stop offset=".5" stop-color="#12aef1"/>
      <stop offset=".75" stop-color="#1f86f9"/>
      <stop offset="1" stop-color="#107ddd"/>
    </radialGradient>
  </defs>
  <g id="Layer_1-2" data-name="Layer_1">
    <path class="cls-7" d="M93.38,46.88c0,12.33-4.9,24.16-13.62,32.88-8.72,8.72-20.55,13.62-32.88,13.62s-24.16-4.9-32.88-13.62C5.28,71.04.38,59.21.38,46.88S5.28,22.72,14,14C22.72,5.28,34.54.38,46.88.38c12.33,0,24.16,4.9,32.88,13.62,8.72,8.72,13.62,20.55,13.62,32.88Z"/>
    <path class="cls-3" d="M89.73,46.88c0,11.37-4.51,22.27-12.55,30.3-8.04,8.04-18.94,12.55-30.3,12.55s-22.27-4.52-30.31-12.55c-8.03-8.04-12.55-18.94-12.55-30.3s4.52-22.27,12.55-30.3c8.04-8.04,18.94-12.55,30.31-12.55,11.36,0,22.26,4.52,30.3,12.55,8.04,8.04,12.55,18.94,12.55,30.3Z"/>
    <path class="cls-6" d="M46.88,6.26c-.08,0-.17.02-.24.05-.08.03-.15.08-.2.14-.06.06-.11.13-.14.2-.03.08-.05.16-.05.24v7.21c0,.08.02.16.05.24.03.08.08.14.14.2.05.06.12.1.2.14.07.03.16.05.24.05.08,0,.16-.02.24-.05.07-.03.14-.08.2-.14.06-.06.1-.13.13-.2.04-.08.05-.16.05-.24v-7.21c0-.08-.01-.16-.05-.24-.03-.08-.07-.14-.13-.2-.06-.06-.13-.1-.2-.14-.08-.03-.16-.05-.24-.05h0ZM42.79,6.51s-.09,0-.13,0c-.08,0-.16.03-.23.07-.07.04-.14.09-.19.16-.05.06-.09.14-.11.22-.03.08-.03.16-.02.24l.31,3.02c.01.08.03.16.07.23.04.07.09.14.16.19.06.05.14.09.21.11.08.02.17.03.25.02.08,0,.16-.03.23-.07.07-.04.14-.09.19-.16.05-.06.09-.14.11-.22.03-.08.03-.16.02-.24l-.31-3.01c-.02-.14-.08-.28-.18-.38-.1-.1-.24-.16-.38-.18h0ZM50.99,6.52c-.14.01-.27.08-.38.18-.1.1-.16.24-.18.38l-.31,3.01c-.01.08,0,.16.02.24.02.08.06.15.11.22.05.06.12.12.19.16.07.04.15.06.23.07.08,0,.17,0,.25-.02.07-.02.15-.06.21-.11.07-.05.12-.12.16-.19.04-.07.06-.15.07-.23l.32-3.02c0-.08,0-.16-.03-.24-.02-.08-.06-.15-.11-.22-.05-.06-.11-.12-.19-.16-.07-.04-.15-.06-.23-.07-.04,0-.08,0-.13,0h0ZM38.59,7.12c-.09,0-.18.02-.27.06-.08.04-.15.1-.21.17-.06.07-.1.16-.12.25-.03.09-.03.18-.01.28l1.5,7.05c.01.08.04.16.09.22.05.07.11.13.18.17.06.04.14.08.22.09.08.01.17.01.25,0,.08-.02.15-.05.22-.1.07-.05.13-.11.17-.17.05-.07.08-.15.09-.23.02-.08.02-.16,0-.24l-1.49-7.05c-.03-.14-.11-.27-.22-.36-.12-.09-.26-.14-.4-.14h0ZM55.19,7.13c-.14,0-.28.05-.39.14-.12.09-.19.22-.22.36l-1.5,7.05c-.02.08-.02.16,0,.24.01.08.04.16.09.23.04.07.1.13.17.17.06.05.14.08.22.1.08.02.16.02.24,0,.09-.01.16-.05.23-.09.07-.04.13-.1.18-.17.04-.07.08-.14.09-.22l1.5-7.05c.02-.09.02-.18,0-.28-.02-.09-.07-.17-.12-.25-.06-.07-.14-.13-.22-.17-.08-.04-.17-.06-.27-.06h0ZM34.58,8.25c-.08,0-.16,0-.24.03-.08.03-.15.07-.22.12-.06.05-.11.12-.15.19-.03.07-.06.15-.06.23-.01.08,0,.16.03.24l.93,2.88c.03.08.07.15.12.21s.12.11.19.15c.08.04.16.06.24.07.08,0,.16,0,.24-.03.08-.03.15-.07.21-.12.07-.05.12-.12.15-.19.04-.07.06-.15.07-.23.01-.08,0-.16-.03-.24l-.94-2.88c-.03-.12-.11-.22-.2-.3-.1-.08-.21-.12-.34-.13ZM59.18,8.25c-.13.01-.24.06-.34.13-.09.08-.17.18-.2.3l-.94,2.88c-.03.08-.04.16-.03.24.01.08.03.16.07.23.03.07.08.14.15.19.06.05.13.09.21.12.08.03.16.04.24.03.08,0,.16-.03.24-.07.07-.04.14-.09.19-.15.05-.06.09-.13.12-.21l.93-2.88c.03-.08.04-.16.03-.24,0-.08-.02-.16-.06-.23-.04-.07-.09-.14-.15-.19-.07-.05-.14-.09-.22-.12-.08-.03-.16-.04-.24-.03ZM30.62,9.7c-.08,0-.17.02-.24.05-.08.03-.14.08-.2.14-.06.06-.1.13-.13.21-.03.08-.05.16-.04.24,0,.08.02.16.05.24l2.93,6.59c.03.08.08.14.14.2.06.06.13.1.2.13.08.03.16.04.25.04.08,0,.16-.02.23-.05.08-.03.15-.08.2-.14.06-.06.1-.13.13-.21.03-.08.05-.16.04-.24,0-.08-.02-.16-.05-.24l-2.93-6.59c-.05-.11-.13-.21-.23-.27-.11-.07-.23-.1-.35-.1h0ZM63.18,9.73c-.12,0-.24.03-.34.1-.11.07-.19.16-.24.27l-2.93,6.58c-.04.07-.06.16-.06.24s.01.16.04.24c.03.08.08.15.13.21.06.06.13.11.2.14.08.03.16.05.24.05.08,0,.16-.01.24-.04.08-.03.15-.07.21-.13.06-.06.1-.12.14-.2l2.93-6.58c.04-.07.06-.16.06-.24s-.01-.16-.04-.24c-.03-.08-.08-.15-.13-.21-.06-.06-.13-.11-.2-.14-.08-.03-.16-.05-.25-.05ZM26.94,11.65c-.12,0-.25.02-.35.08-.07.04-.14.1-.19.16-.05.07-.08.14-.11.22-.02.08-.02.16-.01.24s.04.16.08.23l1.51,2.63c.04.07.1.13.16.18.07.05.14.09.22.11s.16.03.25.02c.08-.01.16-.04.23-.08.07-.04.13-.1.18-.16.05-.07.09-.14.11-.22s.03-.16.01-.24c-.01-.08-.03-.16-.07-.23l-1.52-2.63c-.05-.09-.12-.16-.21-.22-.09-.05-.19-.09-.29-.09h0ZM66.81,11.65c-.1,0-.2.04-.29.09-.08.05-.15.13-.2.22l-1.52,2.63c-.04.07-.07.15-.08.23-.01.08-.01.16.02.24.02.08.05.15.1.22.05.07.12.12.19.16.07.04.15.07.23.08.08.01.16,0,.24-.02s.16-.06.22-.11c.07-.05.12-.11.16-.18l1.52-2.63c.04-.07.07-.15.08-.23s0-.16-.02-.24c-.02-.08-.06-.15-.11-.22-.05-.07-.11-.12-.18-.16-.11-.06-.23-.09-.36-.08ZM23.37,13.88c-.12,0-.24.05-.35.12-.06.05-.12.11-.16.18-.04.07-.07.15-.09.23-.01.08-.01.16.01.24.02.08.06.16.11.22l4.23,5.83c.05.07.11.12.18.17.07.04.14.07.23.08.08.01.16,0,.24,0,.08-.02.15-.05.22-.1.07-.05.12-.11.17-.18.04-.07.07-.15.08-.23.01-.08.01-.16-.01-.24s-.05-.16-.1-.22l-4.23-5.83c-.06-.08-.14-.15-.23-.19-.1-.05-.2-.07-.3-.06h0ZM70.43,13.91c-.1,0-.21.02-.3.06-.09.04-.17.11-.23.19l-4.24,5.83c-.05.07-.08.14-.1.22-.02.08-.02.16,0,.24,0,.08.04.16.08.23.05.07.1.13.17.18.07.05.14.08.22.1.08.02.16.02.24,0,.09-.01.16-.04.23-.08s.13-.1.18-.17l4.24-5.83c.05-.07.09-.14.1-.22.02-.08.03-.16.01-.24-.01-.08-.04-.16-.08-.23-.04-.07-.1-.13-.17-.18-.1-.07-.22-.12-.34-.12ZM20.18,16.55c-.08,0-.17,0-.24.03-.08.03-.15.07-.21.13-.06.05-.11.12-.15.2-.03.07-.06.15-.06.24s.01.16.04.24c.02.08.07.15.12.21l2.03,2.25c.05.06.12.11.19.15.08.04.16.06.24.06.08,0,.16,0,.24-.04s.15-.07.21-.13c.06-.05.11-.12.15-.2.03-.07.05-.15.06-.24,0-.08-.01-.16-.04-.24-.02-.08-.07-.15-.12-.21l-2.03-2.25c-.06-.06-.12-.11-.2-.15-.07-.04-.15-.06-.23-.06h0ZM73.58,16.56c-.16,0-.32.08-.43.21l-2.03,2.25c-.05.06-.1.13-.12.21-.03.08-.04.16-.04.24.01.08.03.16.06.24.04.07.09.14.15.2.06.06.13.1.21.13.07.03.16.04.24.04s.16-.02.23-.06c.08-.04.14-.09.2-.15l2.03-2.25c.05-.06.1-.13.12-.21.03-.08.04-.16.04-.24-.01-.08-.03-.16-.06-.24-.04-.07-.09-.14-.15-.2-.06-.06-.13-.1-.21-.13-.07-.03-.16-.04-.24-.04h0ZM17.12,19.49c-.08,0-.16.02-.24.06-.07.04-.14.09-.19.15-.06.06-.1.13-.13.21-.03.08-.04.16-.03.24,0,.08.02.16.06.24.03.07.08.14.14.2l5.36,4.82c.06.06.13.1.21.12.08.03.16.04.24.04.08,0,.16-.02.24-.06.07-.04.14-.09.19-.15.06-.06.1-.13.13-.21.02-.08.04-.16.03-.24,0-.08-.02-.16-.06-.24-.03-.07-.08-.14-.14-.2l-5.36-4.82c-.06-.06-.13-.1-.21-.13s-.16-.04-.24-.04h0ZM76.66,19.51c-.09,0-.17,0-.25.03-.07.03-.14.07-.21.13l-5.35,4.82c-.07.05-.12.12-.15.19-.04.07-.06.15-.06.24-.01.08.01.16.03.24.03.08.07.15.13.21.05.06.12.11.19.15.08.04.16.06.24.06.08,0,.16,0,.24-.03.08-.03.15-.07.21-.12l5.36-4.82c.06-.05.11-.12.15-.2.03-.07.05-.15.06-.24,0-.08-.01-.16-.04-.24-.03-.08-.07-.15-.12-.21-.06-.06-.12-.11-.2-.15-.07-.04-.15-.06-.23-.06ZM14.57,22.77c-.1,0-.2.02-.29.06-.09.04-.17.11-.23.19-.05.07-.09.14-.11.22-.02.08-.02.16,0,.24.02.08.05.16.09.23.04.07.1.13.16.18l2.46,1.78c.06.05.14.08.22.1s.16.02.24,0c.08-.01.16-.04.23-.08.07-.04.13-.1.18-.17.05-.07.08-.14.1-.22s.03-.16.01-.24c-.01-.08-.04-.16-.08-.23-.05-.07-.1-.13-.17-.18l-2.45-1.78c-.1-.07-.22-.12-.35-.12ZM79.2,22.79c-.13,0-.25.05-.35.12l-2.45,1.78c-.07.05-.12.11-.17.18-.04.07-.07.15-.08.23-.01.08-.01.16.01.24.02.08.05.16.1.22.05.07.11.12.18.17.07.04.15.07.23.08.08.01.16,0,.24,0,.08-.02.16-.05.22-.1l2.46-1.78c.06-.05.12-.11.16-.18.05-.07.07-.15.09-.23.01-.08.01-.16-.01-.24s-.06-.16-.1-.22c-.06-.08-.14-.15-.24-.19-.09-.05-.19-.07-.29-.06ZM12.2,26.26c-.11,0-.21.04-.29.09-.09.05-.16.13-.21.22-.04.07-.07.15-.08.23-.01.08-.01.16.02.24.02.08.05.15.1.22s.12.12.19.16l6.24,3.6c.07.04.15.07.23.08.08.01.16,0,.24-.02.08-.02.16-.06.22-.11.07-.05.12-.11.16-.18.04-.07.07-.15.08-.23s.01-.16-.01-.24c-.03-.08-.06-.15-.11-.22-.05-.07-.12-.12-.19-.16l-6.24-3.6c-.11-.06-.23-.09-.35-.08ZM81.56,26.26c-.13,0-.25.02-.36.08l-6.24,3.6c-.07.04-.13.1-.18.16-.05.07-.09.14-.11.22-.02.08-.03.16-.02.24s.04.16.08.23c.04.07.1.13.16.18.07.05.14.09.22.11.08.02.16.03.25.02.08-.01.16-.04.23-.08l6.24-3.6c.07-.04.13-.1.18-.16.05-.07.09-.14.11-.22s.03-.16.02-.24c-.02-.08-.04-.16-.08-.23-.05-.09-.13-.16-.21-.22-.09-.05-.19-.09-.29-.09h0ZM10.4,29.98c-.13,0-.25.03-.35.1-.1.07-.19.16-.24.27-.03.07-.05.16-.05.24s.01.16.04.24c.03.08.08.15.13.21.06.06.13.11.2.14l2.77,1.24c.07.03.16.05.24.05.08,0,.16-.01.24-.04.07-.03.14-.07.2-.13.06-.06.11-.12.15-.2.03-.07.05-.16.05-.24s-.01-.16-.04-.24c-.03-.08-.08-.15-.13-.21-.06-.06-.13-.11-.2-.14l-2.77-1.24c-.08-.03-.16-.05-.24-.05h0ZM83.37,30c-.08,0-.17.02-.24.05l-2.77,1.23c-.08.03-.15.08-.2.14-.06.06-.1.13-.13.21-.03.08-.05.16-.04.24,0,.08.02.16.05.24.03.08.08.14.14.2.06.06.13.1.21.13.07.03.16.04.24.04.08,0,.16-.02.24-.05l2.76-1.23c.08-.03.15-.08.2-.14.06-.06.11-.13.13-.21.03-.08.05-.16.05-.24-.01-.08-.03-.16-.06-.24-.05-.11-.13-.21-.23-.27-.11-.07-.23-.1-.35-.1ZM8.8,33.86c-.13.01-.24.06-.34.13-.1.08-.17.18-.21.3-.02.08-.03.16-.02.24,0,.08.02.16.06.23.04.07.09.14.15.19.06.05.14.09.21.12l6.86,2.23c.08.03.16.04.24.03.08,0,.16-.03.23-.07.08-.04.14-.09.2-.15.05-.06.09-.13.12-.21.02-.08.03-.16.02-.24,0-.08-.02-.16-.06-.23s-.09-.14-.15-.19c-.06-.05-.14-.09-.22-.12l-6.85-2.23c-.08-.03-.16-.04-.24-.03h0ZM84.97,33.89c-.08,0-.17,0-.25.03l-6.85,2.23c-.08.03-.15.07-.22.12-.06.05-.11.12-.15.19-.03.07-.06.15-.06.23,0,.08,0,.16.03.24.02.08.06.15.12.21.05.06.11.11.19.15.07.04.15.06.23.07.08,0,.17,0,.24-.03l6.86-2.23c.08-.03.15-.07.21-.12.06-.05.11-.12.15-.19.04-.07.06-.15.07-.23,0-.08-.01-.16-.03-.24-.04-.12-.11-.22-.21-.3-.09-.08-.21-.12-.33-.13h0ZM7.8,37.95c-.15,0-.29.05-.4.14s-.19.22-.22.36c-.02.08-.02.16,0,.24,0,.08.04.16.09.23.04.07.1.13.17.17.07.05.14.08.22.1l2.97.63c.08.02.16.02.24,0s.16-.05.23-.09c.07-.04.13-.1.17-.17.05-.07.08-.14.1-.22s.02-.16,0-.24c-.01-.08-.04-.16-.09-.23-.04-.07-.1-.13-.17-.17-.06-.05-.14-.08-.22-.1l-2.97-.63s-.08-.01-.12-.01h0ZM85.96,37.95s-.09,0-.13.01l-2.96.63c-.08.02-.16.05-.23.1-.06.05-.12.11-.17.17-.04.07-.07.15-.09.23-.01.08-.01.16.01.24.01.08.05.16.09.22.05.07.11.13.18.17.07.04.14.08.22.09.08.01.17.01.25,0l2.96-.63c.08-.02.16-.05.23-.1.06-.05.12-.11.17-.17.04-.07.07-.15.09-.23.01-.08.01-.16-.01-.24-.03-.14-.1-.27-.21-.36-.12-.09-.26-.14-.4-.14h0ZM7.04,42.05c-.14.01-.28.08-.38.18-.1.1-.16.24-.18.38-.01.08,0,.16.02.24.03.08.06.15.12.22.05.06.11.12.18.16.08.04.16.06.24.07l7.16.76c.09,0,.17,0,.25-.02.08-.02.15-.06.21-.11.07-.05.12-.12.16-.19.04-.07.06-.15.07-.23s0-.16-.02-.24c-.02-.08-.06-.15-.11-.22-.06-.06-.12-.12-.19-.16-.07-.04-.15-.06-.23-.07l-7.17-.76s-.09,0-.13,0ZM86.72,42.1s-.08,0-.13,0l-7.17.75c-.08,0-.16.03-.23.07-.07.04-.13.09-.19.16-.05.06-.09.14-.11.22s-.03.16-.02.24c.01.08.03.16.07.23.04.07.09.14.16.19.06.05.13.09.21.11.08.02.16.03.24.02l7.17-.75c.08,0,.16-.03.24-.07.07-.04.13-.09.18-.16.06-.06.09-.14.12-.22.02-.08.03-.16.02-.24-.02-.14-.08-.28-.18-.38s-.24-.16-.38-.18h0ZM6.92,46.25c-.08,0-.16.02-.24.05-.08.03-.14.08-.2.14-.06.06-.11.13-.14.2-.03.08-.05.16-.04.24-.01.08,0,.16.04.24.03.08.08.14.14.2.06.06.12.1.2.14.08.03.16.05.24.05h3.03c.08,0,.17-.02.24-.05.08-.03.15-.08.2-.14.06-.06.11-.13.14-.2.03-.08.05-.16.05-.24s-.02-.16-.05-.24c-.03-.08-.08-.14-.14-.2-.05-.06-.12-.1-.2-.14-.07-.03-.16-.05-.24-.05h-3.03ZM83.8,46.25c-.08,0-.16.02-.24.05-.07.03-.14.08-.2.14-.06.06-.1.13-.13.2-.04.08-.05.16-.05.24s0,.16.05.24c.03.08.07.14.13.2.06.06.13.1.2.14.08.03.16.05.24.05h3.03c.09,0,.17-.02.24-.05.08-.03.15-.08.21-.14.05-.06.1-.13.13-.2.03-.08.05-.16.05-.24s-.02-.16-.05-.24c-.03-.08-.07-.14-.13-.2-.06-.06-.13-.1-.21-.14-.07-.03-.15-.05-.24-.05h-3.03ZM14.33,49.66s-.09,0-.13,0l-7.17.75c-.08,0-.16.03-.23.07-.07.04-.14.09-.19.16s-.09.14-.11.22c-.03.08-.03.16-.02.24,0,.08.03.16.07.23.04.07.09.14.15.19.07.05.14.09.22.11.08.02.16.03.24.02l7.17-.75c.08,0,.16-.03.23-.07.08-.04.14-.09.19-.16.05-.06.09-.14.11-.22.03-.08.04-.16.03-.24-.02-.14-.08-.28-.18-.38-.11-.1-.24-.16-.38-.18h0ZM79.42,49.7c-.14.01-.27.08-.38.18-.1.1-.16.24-.18.38-.01.08,0,.16.03.24.02.08.06.15.11.22.05.06.11.12.19.16.07.04.15.06.23.07l7.17.76c.08,0,.16,0,.24-.02.08-.02.15-.06.22-.11.06-.05.11-.12.15-.19.04-.07.07-.15.07-.23.01-.08,0-.16-.02-.24s-.06-.15-.11-.22c-.05-.06-.12-.12-.19-.16-.07-.04-.15-.06-.23-.07l-7.17-.76s-.08,0-.13,0ZM10.75,53.92s-.08,0-.12.01l-2.97.63c-.08.02-.15.05-.22.1-.07.05-.13.11-.17.17-.05.07-.08.15-.09.23-.02.08-.02.16,0,.24.02.08.05.16.1.22.04.07.1.13.17.17.07.04.15.08.23.09.08.01.16.01.24,0l2.97-.63c.08-.02.15-.05.22-.1.07-.05.13-.11.17-.17.05-.07.08-.15.09-.23.02-.08.02-.16,0-.24-.03-.14-.11-.27-.22-.36-.11-.09-.25-.14-.4-.14h0ZM83,53.93c-.14,0-.28.05-.4.14-.11.09-.19.22-.21.36-.02.08-.02.16-.01.24.02.08.05.16.09.23.05.07.1.13.17.17.07.05.15.08.23.1l2.96.63c.08.02.16.02.25,0,.08-.01.15-.05.22-.09.07-.04.13-.1.18-.17.04-.07.08-.14.09-.22.02-.08.02-.16.01-.24-.02-.08-.05-.16-.09-.23-.05-.07-.11-.13-.17-.17-.07-.05-.15-.08-.23-.1l-2.96-.63c-.05,0-.09-.01-.13-.01h0ZM15.75,56.39c-.09,0-.17,0-.25.03l-6.85,2.23c-.08.03-.15.07-.22.12-.06.05-.11.12-.15.19-.03.07-.06.15-.06.23-.01.08,0,.16.03.24.02.08.06.15.11.21.06.06.12.11.2.15.07.04.15.06.23.07.08,0,.16,0,.24-.03l6.86-2.23c.07-.03.15-.07.21-.12.06-.05.11-.12.15-.19.04-.07.06-.15.07-.23,0-.08-.01-.16-.03-.24-.04-.12-.11-.22-.21-.3-.09-.08-.21-.12-.33-.13h0ZM78,56.41c-.12.01-.24.06-.34.13-.09.08-.16.18-.2.3-.03.08-.04.16-.03.24,0,.08.03.16.07.23.03.07.08.14.15.19.06.05.13.09.21.12l6.85,2.23c.08.03.16.04.24.03.09,0,.17-.03.24-.07.07-.04.14-.09.19-.15.05-.06.09-.13.12-.21.03-.08.04-.16.03-.24-.01-.08-.03-.16-.07-.23-.03-.07-.08-.14-.15-.19-.06-.05-.13-.09-.21-.12l-6.85-2.23c-.08-.03-.17-.04-.25-.03ZM13.13,61.27c-.08,0-.16.02-.24.05l-2.77,1.23c-.08.03-.14.08-.2.14-.06.06-.1.13-.13.21-.03.08-.04.16-.04.24s.02.16.05.24c.04.08.08.14.14.2.06.06.13.1.21.13.08.03.16.04.24.04.08,0,.16-.02.24-.05l2.77-1.23c.07-.03.14-.08.2-.14.05-.06.1-.13.13-.21.03-.08.04-.16.04-.24s-.02-.16-.06-.24c-.05-.11-.13-.21-.23-.27-.1-.07-.23-.1-.35-.1h0ZM80.61,61.3c-.12,0-.24.03-.35.1-.1.07-.18.16-.23.27-.03.07-.05.16-.05.24-.01.08.01.16.04.24.03.08.07.15.13.21.05.06.12.11.2.14l2.76,1.23c.08.03.16.05.24.05.08,0,.17-.01.24-.04.08-.03.15-.07.21-.13.06-.06.11-.12.14-.2.03-.07.05-.16.05-.24.01-.08-.01-.16-.04-.24-.03-.08-.07-.15-.13-.21-.05-.06-.12-.11-.2-.14l-2.76-1.24c-.08-.03-.16-.05-.25-.05ZM18.52,62.65c-.12,0-.24.02-.35.08l-6.24,3.6c-.07.04-.14.1-.19.16s-.08.14-.1.22c-.03.08-.03.16-.02.24.01.08.04.16.08.23.04.07.09.13.16.18.06.05.14.09.22.11.08.02.16.03.24.02.08-.01.16-.04.23-.08l6.24-3.6c.07-.04.14-.1.19-.16.05-.07.08-.14.1-.22.03-.08.03-.16.02-.24-.01-.08-.04-.16-.08-.23-.05-.09-.12-.16-.21-.22-.08-.05-.18-.09-.29-.09h0ZM75.23,62.65c-.1,0-.2.04-.29.09-.08.05-.16.13-.21.22-.04.07-.07.15-.08.23-.01.08,0,.16.02.24.02.08.06.15.11.22.05.07.11.12.18.16l6.24,3.6c.07.04.15.07.23.08.09.01.17,0,.25-.02.08-.02.15-.06.22-.11.06-.05.12-.11.16-.18.04-.07.06-.15.08-.23.01-.08,0-.16-.02-.24s-.06-.15-.11-.22c-.05-.07-.11-.12-.18-.16l-6.24-3.6c-.11-.06-.24-.09-.36-.08ZM16.97,67.94c-.13,0-.25.05-.35.12l-2.45,1.78c-.07.05-.12.11-.17.18-.04.07-.07.15-.08.23-.02.08-.01.16.01.24.02.08.05.16.1.22.05.07.11.12.18.17.07.04.15.07.23.08.08.01.16,0,.24,0,.08-.02.16-.05.22-.1l2.46-1.78c.06-.05.12-.11.16-.18.04-.07.07-.15.09-.23.01-.08.01-.16-.01-.24-.02-.08-.06-.16-.11-.22-.06-.08-.13-.15-.23-.2-.09-.04-.19-.07-.29-.06h0ZM76.77,67.96c-.1,0-.2.02-.29.06-.1.04-.18.11-.24.19-.04.07-.08.14-.1.22-.02.08-.02.16-.01.24.02.08.04.16.09.23.04.07.1.13.16.18l2.46,1.78c.06.05.14.08.22.1.08.02.16.02.24,0,.08-.01.16-.04.23-.08.07-.04.13-.1.18-.17.05-.07.08-.14.1-.22.02-.08.02-.16.01-.24s-.04-.16-.08-.23c-.05-.07-.1-.13-.17-.18l-2.45-1.78c-.1-.07-.22-.12-.35-.12h0ZM22.53,68.17c-.09,0-.17,0-.25.03-.07.03-.15.07-.21.13l-5.36,4.82c-.06.05-.11.12-.14.2-.04.07-.06.15-.06.24-.01.08.01.16.03.24.03.08.07.15.13.21.05.06.12.11.19.15.08.04.16.06.24.06.08,0,.16,0,.24-.03.08-.03.15-.07.21-.12l5.36-4.82c.06-.05.11-.12.15-.2.03-.07.05-.15.06-.24,0-.08-.01-.16-.04-.24-.03-.08-.07-.15-.12-.21-.06-.06-.12-.11-.2-.15-.07-.04-.15-.06-.23-.06ZM71.21,68.19c-.16,0-.32.08-.43.21-.05.06-.09.13-.12.21-.03.08-.04.16-.04.24.01.08.03.16.06.24.04.07.09.14.15.2l5.36,4.82c.06.06.13.1.21.12.07.03.15.04.24.04.08,0,.16-.02.23-.06.08-.04.14-.09.2-.15.05-.06.1-.13.12-.21.03-.08.04-.16.04-.24-.01-.08-.03-.16-.06-.24-.04-.07-.09-.14-.15-.2l-5.35-4.82c-.07-.06-.14-.1-.21-.13-.08-.03-.16-.04-.25-.04h0ZM27.61,72.77c-.1,0-.2.02-.3.06-.09.04-.17.11-.23.19l-4.24,5.83c-.05.07-.08.14-.1.22-.02.08-.02.16-.01.24s.04.16.08.23c.05.07.1.13.17.18.07.05.14.08.22.1.08.02.16.02.25,0,.08-.01.15-.04.22-.08.07-.04.14-.1.18-.17l4.24-5.83c.05-.07.09-.14.11-.22.02-.08.02-.16.01-.24-.02-.08-.05-.16-.09-.23s-.1-.13-.16-.18c-.1-.07-.23-.12-.35-.12ZM66.11,72.8c-.12,0-.25.05-.35.12-.06.05-.12.11-.16.18-.04.07-.07.15-.09.23-.01.08-.01.16.01.24s.06.16.11.22l4.23,5.83c.05.07.11.12.18.17.07.04.14.07.22.08.09.01.17,0,.25,0,.08-.02.15-.05.22-.1.07-.05.12-.11.17-.18.04-.07.07-.15.08-.23s.01-.16-.01-.24c-.02-.08-.05-.16-.1-.22l-4.23-5.83c-.06-.08-.14-.15-.23-.19-.1-.05-.2-.07-.3-.06h0ZM22.14,73.7c-.17,0-.32.08-.43.21l-2.03,2.25c-.06.06-.1.13-.13.21-.03.08-.04.16-.03.24,0,.08.02.16.06.24.03.07.08.14.14.2.06.06.13.1.21.12.08.03.16.04.24.04.09,0,.17-.02.24-.06.07-.04.14-.09.2-.15l2.02-2.25c.06-.06.1-.13.13-.21.03-.08.04-.16.03-.24,0-.08-.02-.16-.06-.24-.03-.07-.08-.14-.14-.2-.06-.06-.13-.1-.21-.13-.08-.03-.16-.04-.24-.04h0ZM71.61,73.7c-.08,0-.16,0-.24.03-.07.03-.15.07-.21.13-.06.05-.11.12-.14.2-.04.07-.06.15-.06.24-.01.08,0,.16.03.24.03.08.07.15.13.21l2.03,2.25c.05.06.12.11.19.15.07.04.15.06.24.06.08,0,.16,0,.24-.04.08-.03.15-.07.21-.12.06-.05.11-.12.14-.2.04-.07.06-.15.06-.24.01-.08,0-.16-.03-.24-.03-.08-.07-.15-.13-.21l-2.02-2.25c-.06-.06-.13-.11-.2-.15-.07-.04-.15-.06-.24-.06h0ZM33.53,76.2c-.12,0-.24.03-.35.1-.1.07-.18.16-.23.27l-2.94,6.58c-.03.07-.05.16-.05.24s.01.16.04.24c.03.08.07.15.13.21.06.06.12.11.2.14.07.03.15.05.24.05.08,0,.16-.01.24-.04.07-.03.14-.07.2-.13.06-.06.11-.12.14-.2l2.94-6.58c.03-.07.05-.16.05-.24.01-.08-.01-.16-.04-.24-.03-.08-.07-.15-.13-.21-.05-.06-.12-.11-.2-.14-.07-.03-.16-.05-.24-.05ZM60.18,76.22c-.08,0-.16.02-.24.05-.07.03-.14.08-.2.14-.05.06-.1.13-.13.21-.03.08-.04.16-.04.24s.02.16.05.24l2.93,6.59c.04.08.08.14.14.2.06.06.13.1.21.13.08.03.16.04.24.04.08,0,.16-.02.24-.05.07-.03.14-.08.2-.14.05-.06.1-.13.13-.21.03-.08.04-.16.04-.24s-.02-.16-.06-.24l-2.92-6.59c-.05-.11-.13-.21-.24-.27-.1-.07-.22-.1-.35-.1ZM28.37,78.23c-.1,0-.2.04-.29.09-.08.05-.16.13-.21.22l-1.51,2.63c-.04.07-.07.15-.08.23-.01.08-.01.16.01.24.03.08.06.15.11.22.05.07.12.12.19.16.07.04.15.07.23.08.08.01.16,0,.24-.02.08-.02.15-.06.22-.11.06-.05.12-.11.16-.18l1.52-2.63c.04-.07.06-.15.07-.23.02-.08.01-.16-.01-.24s-.06-.15-.11-.22c-.05-.07-.11-.12-.18-.16-.11-.06-.23-.09-.36-.08ZM65.38,78.23c-.12,0-.24.02-.35.08-.07.04-.14.1-.19.16-.05.07-.08.14-.1.22s-.03.16-.02.24c.01.08.04.16.08.23l1.52,2.63c.04.07.09.13.16.18.06.05.14.09.21.11.08.02.17.03.25.02.08-.01.16-.04.23-.08.07-.04.13-.1.18-.16.05-.07.09-.14.11-.22s.03-.16.02-.24c-.01-.08-.04-.16-.08-.23l-1.52-2.63c-.05-.09-.12-.16-.21-.22-.09-.05-.18-.09-.29-.09ZM40.07,78.33c-.15,0-.29.05-.4.14-.11.09-.19.22-.22.36l-1.49,7.05c-.02.08-.02.16-.01.24.02.08.05.16.09.23.05.07.1.13.17.17.07.05.15.08.23.1.08.02.16.02.24,0,.08-.01.16-.05.23-.09.07-.04.13-.1.17-.17.05-.07.08-.14.1-.22l1.5-7.05c0-.09,0-.18-.01-.28-.02-.09-.06-.17-.12-.25-.06-.07-.13-.13-.21-.17-.09-.04-.18-.06-.27-.06h0ZM53.67,78.33c-.1,0-.19.02-.27.06-.09.04-.16.1-.22.17-.06.07-.1.16-.12.25-.02.09-.02.18,0,.27l1.49,7.05c.02.08.05.16.1.22.04.07.1.13.17.17.07.04.15.08.23.09.08.01.16.01.24,0,.08-.02.16-.05.23-.1.06-.05.12-.11.17-.17.04-.07.07-.15.09-.23.01-.08.01-.16-.01-.24l-1.49-7.05c-.03-.14-.11-.27-.22-.36-.11-.09-.25-.14-.39-.14h0ZM46.88,79.04c-.08,0-.17.02-.24.05-.08.03-.15.08-.2.14-.06.06-.11.13-.14.2-.03.08-.05.16-.05.24v7.21c0,.08.02.16.05.24.03.08.08.14.14.2.05.06.12.1.2.14.07.03.16.05.24.05.08,0,.16-.02.24-.05.07-.03.14-.08.2-.14.06-.06.1-.13.14-.2.03-.08.04-.16.04-.24v-7.21c0-.08-.01-.16-.04-.24-.04-.08-.08-.14-.14-.2-.06-.06-.13-.1-.2-.14-.08-.03-.16-.05-.24-.05h0ZM35.41,81.37c-.12.01-.24.06-.34.13-.09.08-.17.18-.2.3l-.94,2.88c-.03.08-.04.16-.03.24s.03.16.07.23c.03.07.09.14.15.19s.13.09.21.12c.08.03.16.04.24.03.09,0,.17-.03.24-.07.07-.04.14-.09.19-.15s.09-.13.12-.21l.94-2.88c.02-.08.03-.16.02-.24,0-.08-.02-.16-.06-.23-.04-.07-.09-.14-.15-.19-.06-.05-.14-.09-.22-.12-.07-.03-.16-.04-.24-.03ZM58.34,81.37c-.08,0-.17,0-.24.03-.08.03-.16.07-.22.12-.06.05-.11.12-.15.19-.04.07-.06.15-.06.23-.01.08,0,.16.02.24l.94,2.88c.03.08.07.15.12.21s.12.11.19.15c.07.04.15.06.24.07.08,0,.16,0,.24-.03.08-.03.15-.07.21-.12.06-.05.12-.12.15-.19.04-.07.06-.15.07-.23.01-.08,0-.16-.03-.24l-.94-2.88c-.04-.12-.11-.22-.2-.3-.1-.08-.22-.12-.34-.13h0ZM42.96,82.98c-.15.01-.28.08-.38.18-.11.1-.17.24-.18.38l-.32,3.02c-.01.08,0,.16.02.24.02.08.06.15.11.22.06.06.12.12.19.16.07.04.15.06.23.07.09,0,.17,0,.25-.02.08-.02.15-.06.21-.11.07-.05.12-.12.16-.19.04-.07.06-.15.07-.23l.32-3.01c.01-.08,0-.16-.02-.24-.03-.08-.07-.15-.12-.22-.05-.06-.11-.12-.18-.16-.08-.04-.16-.06-.24-.07-.04,0-.08,0-.12,0ZM50.77,82.98s-.08,0-.12,0c-.08,0-.16.03-.24.07-.07.04-.13.09-.18.16-.06.06-.09.14-.12.22-.02.08-.03.16-.02.24l.32,3.02c0,.08.03.16.07.23.04.07.09.14.15.19.07.05.14.09.22.11.08.02.16.03.24.02.08,0,.16-.03.24-.07.07-.04.13-.09.18-.16.05-.06.09-.14.12-.22.02-.08.03-.16.02-.24l-.32-3.02c-.01-.14-.07-.28-.18-.38-.1-.1-.23-.16-.38-.18h0Z"/>
    <g class="cls-5">
      <path d="M76.16,21.88l-34.18,19.86-21.62,34.03,31.62-23.42,24.18-30.47Z"/>
    </g>
    <path class="cls-4" d="M51.78,52.01l-9.8-10.26,34.76-23.38-24.96,33.64Z"/>
    <path class="cls-1" d="M51.78,52.01l-9.8-10.26-24.96,33.64,34.76-23.38Z"/>
    <path class="cls-2" d="M17.02,75.39l34.76-23.38,24.96-33.64-59.72,57.03Z"/>
  </g>
</svg>