<?xml version="1.0" encoding="UTF-8"?>
<svg id="Layer_2" xmlns="http://www.w3.org/2000/svg" viewBox="0 0 60.65 93">
  <defs>
    <style>
      .cls-1 {
        fill: #7d4698;
      }

      .cls-2 {
        fill: #fffcdb;
      }

      .cls-3 {
        fill: #abcd03;
      }
    </style>
  </defs>
  <g id="Layer_1-2" data-name="Layer_1">
    <path class="cls-3" d="M34.8,6.94l-2.47,9.83c3.51-6.94,9.07-12.17,15.46-16.77-4.67,5.43-8.93,10.86-11.55,16.29,4.4-6.19,10.31-9.62,16.98-11.89-8.87,7.9-15.9,16.39-21.27,24.91l-4.26-1.86c.75-6.8,3.33-13.77,7.11-20.51Z"/>
    <path class="cls-2" d="M23.42,25.65l8.11,3.37c0,2.06-.17,8.35,1.12,10.21,13.49,17.37,11.22,52.2-2.73,53.09-21.25,0-29.35-14.43-29.35-27.7,0-12.1,14.5-20.14,23.16-27.29,2.2-1.92,1.82-6.18-.31-11.68Z"/>
    <path class="cls-1" d="M31.54,28.89l2.92,1.49c-.28,1.92.14,6.19,2.06,7.29,8.52,5.29,16.57,11.07,19.73,16.84,11.27,20.35-7.91,39.18-24.47,37.39,9-6.67,11.62-20.35,8.25-35.26-1.37-5.84-3.51-11.14-7.29-17.12-1.64-2.94-1.07-6.58-1.2-10.63Z"/>
    <path d="M30.13,28.39l6.05.82c-1.79,5.91,3.51,10.04,5.22,11,3.85,2.13,7.56,4.33,10.52,7.01,2.75,2.51,4.95,5.57,6.46,8.98,1.5,3.41,2.28,7.09,2.28,10.82,0,7.49-3.44,14.71-9.21,19.52-5.43,4.54-12.92,6.46-20.21,6.46-4.54,0-8.59-.21-12.99-1.65C8.2,87.98.71,79.39.09,69.08c-.55-8.04,1.24-14.16,7.49-20.55,3.23-3.37,9.76-7.22,14.23-10.31,2.2-1.51,4.54-5.77.07-13.82l.89-.69,6.62,4.44-5.59-2.3c.48.69,1.79,3.78,2.06,4.67.62,2.54.34,5.02-.21,6.12-2.82,5.09-7.63,6.46-11.14,9.35-6.19,5.09-12.92,9.14-12.17,23.1.34,6.87,5.71,15.26,13.75,19.18,4.54,2.2,9.76,3.09,15.05,3.37,4.74.21,13.82-2.61,18.76-6.74,5.29-4.4,8.25-11.07,8.25-17.87s-2.75-13.4-7.9-18.01c-2.96-2.68-7.84-5.91-10.86-7.63-3.02-1.72-6.8-6.53-5.57-11.13l-3.71-1.86Z"/>
    <path d="M28.28,38.56c-.62,3.16-1.31,8.87-4.06,11-1.17.82-2.34,1.65-3.57,2.47-4.95,3.37-9.9,6.53-12.17,14.64-.48,1.72-.07,3.57.34,5.29,1.24,4.95,4.74,10.31,7.49,13.47,0,.14.55.48.55.62,2.27,2.68,2.96,3.44,11.55,5.36l-.21.96c-5.15-1.37-9.42-2.61-12.1-5.71,0-.07-.48-.55-.48-.55-2.89-3.3-6.39-8.8-7.7-13.95-.48-2.06-.89-3.64-.34-5.77,2.34-8.39,7.42-11.68,12.58-15.19,1.17-.76,2.54-1.44,3.64-2.34,2.13-1.58,3.3-6.39,4.47-10.31Z"/>
    <path d="M30.47,51.62c.07,3.57-.28,5.37.61,7.91.55,1.51,2.41,3.57,2.96,5.57.76,2.68,1.58,5.64,1.51,7.42,0,2.06-.13,5.91-1.02,10.03-.68,3.41-2.25,6.33-4.89,7.99-2.7-.56-5.88-1.51-7.75-3.11-3.64-3.16-6.87-8.45-7.28-13.05-.34-3.78,3.16-9.36,8.04-12.17,4.12-2.41,5.08-5.15,5.98-9.55-1.24,3.85-2.4,7.08-6.39,9.14-5.77,3.02-8.74,8.1-8.46,12.91.41,6.19,2.89,10.38,7.77,13.75,2.06,1.44,5.91,2.97,8.32,3.38v-.31c1.82-.34,4.19-3.34,5.36-7.39,1.03-3.64,1.44-8.31,1.37-11.26-.07-1.72-.83-5.44-2.2-8.81-.76-1.86-1.92-3.71-2.67-5.02-.82-1.31-.83-4.12-1.24-7.42Z"/>
    <path d="M30.06,65.1c.07,2.41,1.03,5.49,1.45,8.65.34,2.34.2,4.69.13,6.75-.07,2.39-.86,6.66-1.95,8.74-1.03-.47-1.43-1.01-2.09-1.87-.82-1.17-1.38-2.34-1.93-3.71-.41-1.03-.89-2.21-1.1-3.59-.28-2.06-.2-5.29,2.14-8.59,1.79-2.61,2.2-2.81,2.82-5.83-.83,2.68-1.44,2.95-3.37,5.22-2.13,2.47-2.48,6.12-2.48,9.07,0,1.24.49,2.61.97,3.92.55,1.38,1.02,2.74,1.78,3.77,1.14,1.67,2.59,2.62,3.3,2.8,0,0,.01,0,.02,0,.02,0,.03.01.05.02v-.08c1.33-1.49,2.14-2.96,2.41-4.45.34-1.79.42-3.58.63-5.71.21-1.79.06-4.19-.42-6.67-.69-3.09-1.85-6.25-2.33-8.45Z"/>
    <path d="M30.27,35.67c.07,3.57.34,10.24,1.31,12.85.27.89,2.82,4.81,4.6,9.55,1.24,3.3,1.51,6.32,1.72,7.22.83,3.92-.21,10.52-1.58,16.77-.69,3.37-3.02,7.56-5.7,9.21l-.55.96c1.51-.07,5.22-3.71,6.53-8.25,2.2-7.7,3.09-11.27,2.06-19.8-.14-.83-.48-3.64-1.79-6.67-1.92-4.61-4.67-9-5.02-9.9-.62-1.44-1.44-7.7-1.58-11.96Z"/>
    <path d="M31.56,30.79c-.21,3.67-.26,5.03.43,7.71.76,2.96,4.61,7.22,6.19,12.1,3.03,9.35,2.27,21.58.07,31.14-.82,3.37-4.74,8.25-8.66,9.83l2.89.69c1.58-.07,5.64-3.85,7.22-8.18,2.54-6.81,3.02-14.92,1.99-23.44-.07-.82-1.44-8.18-2.75-11.27-1.86-4.61-5.16-8.73-5.5-9.62-.62-1.51-1.98-4.65-1.87-8.94Z"/>
    <path d="M29.37,28.2h.28v63.43h-.28V28.2Z"/>
  </g>
</svg>