<?xml version="1.0" encoding="UTF-8"?>
<svg id="Layer_2" xmlns="http://www.w3.org/2000/svg" xmlns:xlink="http://www.w3.org/1999/xlink" viewBox="0 0 93.19 93">
  <defs>
    <style>
      .cls-1 {
        fill: url(#linear-gradient);
      }

      .cls-2 {
        fill: #ef3939;
      }

      .cls-3 {
        fill: #fff;
      }
    </style>
    <linearGradient id="linear-gradient" x1="-534.81" y1="996.38" x2="-490.56" y2="919.32" gradientTransform="translate(564 1012.65) scale(1 -1)" gradientUnits="userSpaceOnUse">
      <stop offset="0" stop-color="#000" stop-opacity=".2"/>
      <stop offset=".79" stop-color="#000" stop-opacity=".05"/>
    </linearGradient>
  </defs>
  <g id="Layer_1-2" data-name="Layer_1">
    <path class="cls-2" d="M46.59,93c20.41,0,31.75,0,39.18-7.4,7.42-7.4,7.42-18.72,7.42-39.11s0-31.7-7.42-39.11C78.34,0,67,0,46.59,0S14.84,0,7.41,7.4C0,14.81,0,26.13,0,46.51s0,31.7,7.41,39.11c7.43,7.38,18.77,7.38,39.18,7.38Z"/>
    <path class="cls-1" d="M76.89,29.3c-4.46-7.81-11.94-13.9-21.33-16.43-18.65-4.98-37.81,6.05-42.81,24.65-2.52,9.35-.96,18.85,3.58,26.6.06.1.13.23.21.33l16.42,28.4c2.72.08,5.67.1,8.84.1h4.63c9.07,0,16.35,0,22.31-.66,7.43-.82,12.76-2.65,16.87-6.75,6-5.99,7.15-14.56,7.37-28.44-9.58-16.57-16.07-27.79-16.09-27.81Z"/>
    <path class="cls-3" d="M71.12,21.9c-13.62-13.62-35.71-13.62-49.34,0-13.62,13.62-13.62,35.68,0,49.28,13.61,13.62,35.7,13.62,49.34,0,13.63-13.62,13.63-35.68,0-49.28ZM69.03,37.92c-5.75,9.99-11.51,19.97-17.26,29.98-1.06,1.87-2.62,2.97-4.75,3.14-2.37.16-4.26-.84-5.47-2.89-3.64-6.25-7.24-12.55-10.85-18.83-2.19-3.81-4.4-7.63-6.59-11.46-2.21-3.86.29-8.55,4.71-8.78,2.33-.12,4.14.96,5.32,2.99,1.62,2.77,3.22,5.58,4.83,8.37,1.17,2.01,2.3,4.04,3.49,6.01,1.71,2.89,4.25,4.51,7.63,4.72,4.77.29,9.21-3.18,9.79-8.24.04-.37.06-.76.08-.94-.02-1.64-.33-3.03-.98-4.33-1.78-3.57.12-7.57,3.99-8.43,3.15-.7,6.43,1.62,6.84,4.82.2,1.37-.09,2.67-.78,3.88Z"/>
  </g>
</svg>