<?xml version="1.0" encoding="UTF-8"?>
<svg id="Layer_2" xmlns="http://www.w3.org/2000/svg" viewBox="0 0 80.8 93">
  <defs>
    <style>
      .cls-1, .cls-2 {
        isolation: isolate;
        opacity: .2;
      }

      .cls-3 {
        fill: #41a6cc;
      }

      .cls-4 {
        fill: #354358;
      }

      .cls-2 {
        fill: #fff;
      }
    </style>
  </defs>
  <g id="Layer_1-2" data-name="Layer_1">
    <path class="cls-4" d="M40.39,11.23c-10.15,0-19.88,4.03-27.06,11.21-7.17,7.18-11.21,16.91-11.21,27.06s4.04,19.88,11.21,27.06c7.18,7.18,16.91,11.21,27.06,11.21s19.89-4.03,27.06-11.21c7.18-7.18,11.21-16.91,11.21-27.06s-4.03-19.88-11.21-27.06c-7.17-7.18-16.91-11.21-27.06-11.21Z"/>
    <path class="cls-1" d="M44.88,3.11c-1,0-2.9.17-3.88.44-3.25.9-6.28,5.13-7.4,8.21-.17.46-.39.89-.49.93-.1.05-.49.15-.86.22-3.85.81-8.54,2.57-11.76,4.41-7.24,4.14-12.8,10.03-16.41,17.38-2.04,4.15-3.2,7.96-3.87,12.73-.28,2.02-.28,8.15,0,10.18,1.28,9.13,5.11,16.95,11.4,23.32,7.16,7.26,16.35,11.39,26.75,12.03,1.3.08,5.21-.05,6.73-.22,4.25-.48,8.77-1.78,12.65-3.62,12.67-6.03,21.31-18.11,22.9-32.02.08-.69.14-2.56.14-4.18.25-4.63-1.65-9.23-3.56-12.61-1.97-4.08-2.35-7.62-2.64-11.98.04-.27.04-.54-.01-.61-5.22,1.61-9.69,5.82-12.44,9.73-1.85,2.97-3.07,6-3.08,8.66.26,6.81,6.09,11.71,6.22,17.86,0,6.53-3.93,12.84-8.6,17.35-.94.91-1.17,1.07-1.27.97-.04-.03.11-.43.32-.89,3.25-7.13,2.57-15.68-2.43-21.67-.7-.84-3.44-3.55-3.83-3.79.17.94.27,1.9.27,2.86,0,8.58-6.96,15.54-15.54,15.54s-15.54-6.96-15.54-15.54,6.95-15.54,15.54-15.54c.98,0,1.96.1,2.92.29.05,0,.1,0,.15,0,.14-.12.24-.24.24-.27,0-.24-3.83-4.07-4.89-4.89-2.16-1.67-4.61-3.69-7.45-4.42-.76-.2-1.16-.35-1.16-.46,0-.29,2.7-1.09,5.69-1.69,3.63-.73,5.99-.91,13.04-.98,2.95-.03,5.87-.11,6.48-.17,7.59-1.22,13.7-6.2,16.42-11.76.08-.25.07-.25-1.11-.25-2.49,0-5.01-.52-7.4-1.57-3.09-1.76-5.82-3.79-9.13-4.5-.86-.18-3.18-.22-4.48-.39-.3-2.61.85-6.39,1.97-8.07.28-.4.48-.78.46-.84-.04-.12-.46-.17-1.06-.17h0Z"/>
    <path class="cls-3" d="M44.88,0c-1,0-2.9.17-3.88.44-3.25.9-6.28,5.13-7.4,8.21-.17.46-.39.89-.49.93-.1.05-.49.15-.86.22-3.85.81-8.54,2.57-11.76,4.41-7.24,4.14-12.8,10.03-16.41,17.38-2.04,4.15-3.2,7.96-3.87,12.73-.28,2.03-.28,8.15,0,10.18,1.28,9.13,5.11,16.95,11.4,23.32,7.16,7.26,16.35,11.39,26.75,12.03,1.3.08,5.21-.05,6.73-.22,4.25-.48,8.77-1.78,12.65-3.62,12.67-6.03,21.31-18.11,22.9-32.02.08-.69.14-2.56.14-4.18.25-4.63-1.65-9.23-3.56-12.61-1.97-4.08-2.35-7.62-2.64-11.98.04-.27.04-.54-.01-.61-5.22,1.61-9.69,5.82-12.44,9.73-1.85,2.97-3.07,6-3.08,8.66.26,6.81,6.09,11.71,6.22,17.86,0,6.53-3.93,12.84-8.6,17.35-.94.91-1.17,1.07-1.27.97-.04-.03.11-.43.32-.89,3.25-7.13,2.57-15.68-2.43-21.67-.7-.84-3.44-3.55-3.83-3.79.17.94.27,1.9.27,2.86,0,8.58-6.96,15.54-15.54,15.54s-15.54-6.96-15.54-15.54,6.95-15.54,15.54-15.54c.98,0,1.96.1,2.92.29.05,0,.1,0,.15,0,.14-.12.24-.24.24-.27,0-.24-3.83-4.07-4.89-4.89-2.16-1.67-4.61-3.69-7.45-4.42-.76-.2-1.16-.35-1.16-.46,0-.29,2.7-1.09,5.69-1.69,3.63-.73,5.99-.91,13.04-.98,2.95-.03,5.87-.11,6.48-.17,7.59-1.22,13.7-6.2,16.42-11.76.08-.25.07-.25-1.11-.25-2.49,0-5.01-.52-7.4-1.57-3.09-1.76-5.82-3.79-9.13-4.5-.86-.18-3.18-.22-4.48-.39-.3-2.61.85-6.39,1.97-8.07.28-.4.48-.78.46-.84-.04-.12-.46-.17-1.06-.17h0Z"/>
    <path class="cls-2" d="M44.88,0c-1,0-2.9.17-3.88.44-3.25.9-6.28,5.13-7.4,8.21-.17.46-.39.89-.49.93-.1.05-.49.15-.86.22-3.85.81-8.54,2.57-11.76,4.41-7.24,4.14-12.8,10.03-16.41,17.38-2.04,4.15-3.2,7.96-3.87,12.73-.18,1.32-.2,4.1-.14,6.64.03-1.35.04-2.83.14-3.53.67-4.77,1.83-8.58,3.87-12.73,3.61-7.35,9.17-13.24,16.41-17.38,3.22-1.84,7.91-3.61,11.76-4.41.37-.08.76-.18.86-.22.1-.05.32-.47.49-.93,1.12-3.08,4.15-7.31,7.4-8.21.88-.24,2.44-.38,3.48-.42.31-.83.65-1.59,1-2.12.28-.4.48-.78.46-.84-.04-.12-.46-.17-1.06-.17ZM43.72,9.1c-.2,1.08-.32,2.16-.21,3.09,1.3.18,3.62.21,4.48.39,3.31.71,6.04,2.75,9.13,4.5,2.19.96,4.48,1.46,6.76,1.54.67-.92,1.28-1.85,1.75-2.82.08-.25.07-.26-1.11-.26-2.49,0-5.01-.52-7.4-1.57-3.09-1.76-5.82-3.79-9.13-4.5-.82-.18-2.95-.22-4.27-.38ZM74.57,24.63c-5.22,1.61-9.69,5.83-12.43,9.73-1.86,2.97-3.08,5.99-3.09,8.66.02.48.12.92.19,1.38.39-2.22,1.43-4.59,2.9-6.94,2.74-3.9,7.21-8.13,12.43-9.73.05.07.05.34.01.61.29,4.35.67,7.89,2.64,11.98,1.63,2.89,3.24,6.65,3.53,10.57.01-.42.03-.65.03-1.07.25-4.63-1.65-9.23-3.56-12.61-1.97-4.08-2.35-7.62-2.64-11.98.04-.27.04-.54-.01-.61ZM28.2,32.19c-2.27.53-4.2,1.1-4.2,1.33,0,.1.4.26,1.16.46,2.84.73,5.29,2.75,7.45,4.42.36.28,1.18,1.09,1.92,1.8.86.02,1.73.09,2.58.26.05,0,.1,0,.15,0,.14-.12.24-.24.24-.27,0-.24-3.83-4.07-4.89-4.89-1.34-1.04-2.82-2.18-4.41-3.1ZM49.45,52.84c.18.94.28,1.9.28,2.86,0,.16-.02.32-.03.48.65.52,2.94,2.78,3.59,3.56,2.62,3.14,4.02,7,4.32,10.98.36-5.05-1.02-10.12-4.32-14.08-.7-.84-3.44-3.55-3.84-3.79ZM18.73,57.26c-.05.51-.08,1.03-.08,1.55,0,8.58,6.95,15.54,15.54,15.54s15.54-6.96,15.54-15.54c0-.42-.09-.83-.12-1.25-.92,7.71-7.47,13.68-15.42,13.68s-14.68-6.13-15.46-13.99ZM65.12,62.87c-.67,5.69-4.12,11.07-8.2,15.1-.31,1.17-.69,2.33-1.2,3.45-.21.46-.36.86-.32.89.1.1.33-.06,1.27-.97,4.67-4.51,8.6-10.82,8.6-17.35-.01-.38-.1-.74-.15-1.12Z"/>
  </g>
</svg>