<?xml version="1.0" encoding="UTF-8"?>
<svg id="Layer_2" xmlns="http://www.w3.org/2000/svg" xmlns:xlink="http://www.w3.org/1999/xlink" viewBox="0 0 93 93">
  <defs>
    <style>
      .cls-1 {
        fill: #fff;
      }

      .cls-1, .cls-2, .cls-3 {
        fill-rule: evenodd;
      }

      .cls-2 {
        fill: #ec1c24;
      }

      .cls-3 {
        fill: url(#linear-gradient);
      }
    </style>
    <linearGradient id="linear-gradient" x1="-517.5" y1="1012.65" x2="-517.5" y2="919.65" gradientTransform="translate(564 1012.65) scale(1 -1)" gradientUnits="userSpaceOnUse">
      <stop offset="0" stop-color="#f5f5f6"/>
      <stop offset="1" stop-color="#ededee"/>
    </linearGradient>
  </defs>
  <g id="Layer_1-2" data-name="Layer_1">
    <path class="cls-3" d="M93,46.5c0,25.68-20.82,46.5-46.5,46.5S0,72.18,0,46.5,20.82,0,46.5,0s46.5,20.82,46.5,46.5Z"/>
    <path class="cls-1" d="M90.75,46.5c0,24.44-19.81,44.25-44.25,44.25S2.25,70.94,2.25,46.5,22.06,2.25,46.5,2.25s44.25,19.81,44.25,44.25Z"/>
    <path class="cls-2" d="M76.43,27.32l-24.89,24.34v30.26c0,.54-2.36.98-5.05,1.02-2.58-.04-5.05-.47-5.05-1.02v-30.26l-24.89-24.34c-.4-.4.87-2.29,2.83-4.25,1.96-1.96,3.89-3.23,4.25-2.83l22.81,22.27,22.81-22.27c.4-.4,2.29.87,4.25,2.83,1.96,1.96,3.27,3.85,2.91,4.25Z"/>
  </g>
</svg>